<svg width="289" height="306" viewBox="0 0 289 306" fill="none" xmlns="http://www.w3.org/2000/svg">
<path d="M0.307065 181L24.3288 127.105H36.6477L60.7464 181H47.6576L27.9475 133.418H32.875L13.0879 181H0.307065ZM12.3179 169.451L15.6286 159.981H43.346L46.7337 169.451H12.3179ZM67.8779 181V127.105H91.2067C96.0315 127.105 100.189 127.901 103.68 129.492C107.17 131.032 109.865 133.264 111.764 136.19C113.663 139.116 114.612 142.606 114.612 146.661C114.612 150.665 113.663 154.13 111.764 157.055C109.865 159.93 107.17 162.137 103.68 163.677C100.189 165.216 96.0315 165.986 91.2067 165.986H74.8072L80.3507 160.52V181H67.8779ZM102.14 181L88.6659 161.444H101.986L115.613 181H102.14ZM80.3507 161.906L74.8072 156.054H90.5137C94.3634 156.054 97.2378 155.233 99.1369 153.591C101.036 151.897 101.986 149.587 101.986 146.661C101.986 143.684 101.036 141.374 99.1369 139.732C97.2378 138.089 94.3634 137.268 90.5137 137.268H74.8072L80.3507 131.34V161.906ZM137.506 148.817H163.453V158.518H137.506V148.817ZM138.43 170.991H167.765V181H126.034V127.105H166.764V137.114H138.43V170.991Z" fill="#005669"/>
<mask id="path-2-outside-1_34_321" maskUnits="userSpaceOnUse" x="-5" y="19" width="295" height="80" fill="black">
<rect fill="white" x="-5" y="19" width="295" height="80"/>
<path d="M24.8851 92L3.09351 25.3883H19.0803L38.0171 84.3872H30.0237L49.8169 25.3883H64.0908L83.1228 84.3872H75.4148L94.8274 25.3883H109.577L87.7856 92H71.2278L54.3845 40.2332H58.7619L41.4428 92H24.8851ZM174.327 25.3883H189.743V92H174.327V25.3883ZM144.067 92H128.651V25.3883H144.067V92ZM175.469 64.6892H142.925V51.6523H175.469V64.6892ZM248.325 93.1419C243.06 93.1419 238.175 92.2855 233.67 90.5726C229.23 88.8597 225.36 86.449 222.061 83.3405C218.826 80.2319 216.288 76.5841 214.448 72.3971C212.672 68.2101 211.784 63.6424 211.784 58.6941C211.784 53.7458 212.672 49.1782 214.448 44.9911C216.288 40.8041 218.857 37.1563 222.156 34.0478C225.455 30.9392 229.325 28.5285 233.766 26.8157C238.206 25.1028 243.028 24.2464 248.23 24.2464C253.495 24.2464 258.317 25.1028 262.694 26.8157C267.135 28.5285 270.973 30.9392 274.208 34.0478C277.507 37.1563 280.077 40.8041 281.916 44.9911C283.756 49.1147 284.676 53.6824 284.676 58.6941C284.676 63.6424 283.756 68.2418 281.916 72.4923C280.077 76.6793 277.507 80.3271 274.208 83.4356C270.973 86.4807 267.135 88.8597 262.694 90.5726C258.317 92.2855 253.527 93.1419 248.325 93.1419ZM248.23 80.0099C251.212 80.0099 253.939 79.5024 256.414 78.4873C258.951 77.4723 261.172 76.0132 263.075 74.11C264.978 72.2068 266.437 69.9547 267.452 67.3537C268.531 64.7526 269.07 61.8661 269.07 58.6941C269.07 55.5221 268.531 52.6356 267.452 50.0346C266.437 47.4336 264.978 45.1815 263.075 43.2783C261.235 41.3751 259.046 39.916 256.509 38.9009C253.971 37.8859 251.212 37.3784 248.23 37.3784C245.248 37.3784 242.489 37.8859 239.951 38.9009C237.477 39.916 235.288 41.3751 233.385 43.2783C231.482 45.1815 229.991 47.4336 228.912 50.0346C227.897 52.6356 227.39 55.5221 227.39 58.6941C227.39 61.8027 227.897 64.6892 228.912 67.3537C229.991 69.9547 231.45 72.2068 233.29 74.11C235.193 76.0132 237.413 77.4723 239.951 78.4873C242.489 79.5024 245.248 80.0099 248.23 80.0099Z"/>
</mask>
<path d="M24.8851 92L19.9518 93.6139L21.1219 97.1905H24.8851V92ZM3.09351 25.3883V20.1977H-4.06575L-1.83974 27.0021L3.09351 25.3883ZM19.0803 25.3883L24.0225 23.802L22.8657 20.1977H19.0803V25.3883ZM38.0171 84.3872V89.5778H45.1344L42.9593 82.8009L38.0171 84.3872ZM30.0237 84.3872L25.1027 82.7363L22.8075 89.5778H30.0237V84.3872ZM49.8169 25.3883V20.1977H46.0834L44.8959 23.7374L49.8169 25.3883ZM64.0908 25.3883L69.0307 23.7948L67.8704 20.1977H64.0908V25.3883ZM83.1227 84.3872V89.5778H90.251L88.0626 82.7937L83.1227 84.3872ZM75.4148 84.3872L70.4843 82.7649L68.2427 89.5778H75.4148V84.3872ZM94.8274 25.3883V20.1977H91.071L89.8969 23.766L94.8274 25.3883ZM109.577 25.3883L114.51 27.0021L116.736 20.1977H109.577V25.3883ZM87.7856 92V97.1905H91.5488L92.7188 93.6139L87.7856 92ZM71.2278 92L66.292 93.606L67.4583 97.1905H71.2278V92ZM54.3845 40.2332V35.0426H47.2374L49.4487 41.8391L54.3845 40.2332ZM58.7619 40.2332L63.6842 41.88L65.9717 35.0426H58.7619V40.2332ZM41.4428 92V97.1905H45.1796L46.3652 93.6468L41.4428 92ZM29.8183 90.3861L8.02676 23.7744L-1.83974 27.0021L19.9518 93.6139L29.8183 90.3861ZM3.09351 30.5788H19.0803V20.1977H3.09351V30.5788ZM14.1381 26.9745L33.0749 85.9735L42.9593 82.8009L24.0225 23.802L14.1381 26.9745ZM38.0171 79.1967H30.0237V89.5778H38.0171V79.1967ZM34.9447 86.0381L54.7379 27.0392L44.8959 23.7374L25.1027 82.7363L34.9447 86.0381ZM49.8169 30.5788H64.0908V20.1977H49.8169V30.5788ZM59.151 26.9818L78.1829 85.9807L88.0626 82.7937L69.0307 23.7948L59.151 26.9818ZM83.1227 79.1967H75.4148V89.5778H83.1227V79.1967ZM80.3453 86.0095L99.7579 27.0106L89.8969 23.766L70.4843 82.7649L80.3453 86.0095ZM94.8274 30.5788H109.577V20.1977H94.8274V30.5788ZM104.644 23.7744L82.8523 90.3861L92.7188 93.6139L114.51 27.0021L104.644 23.7744ZM87.7856 86.8095H71.2278V97.1905H87.7856V86.8095ZM76.1636 90.394L59.3204 38.6272L49.4487 41.8391L66.292 93.606L76.1636 90.394ZM54.3845 45.4237H58.7619V35.0426H54.3845V45.4237ZM53.8395 38.5863L36.5205 90.3532L46.3652 93.6468L63.6842 41.88L53.8395 38.5863ZM41.4428 86.8095H24.8851V97.1905H41.4428V86.8095ZM174.327 25.3883V20.1977H169.137V25.3883H174.327ZM189.743 25.3883H194.934V20.1977H189.743V25.3883ZM189.743 92V97.1905H194.934V92H189.743ZM174.327 92H169.137V97.1905H174.327V92ZM144.067 92V97.1905H149.257V92H144.067ZM128.651 92H123.46V97.1905H128.651V92ZM128.651 25.3883V20.1977H123.46V25.3883H128.651ZM144.067 25.3883H149.257V20.1977H144.067V25.3883ZM175.469 64.6892V69.8797H180.66V64.6892H175.469ZM142.925 64.6892H137.734V69.8797H142.925V64.6892ZM142.925 51.6523V46.4618H137.734V51.6523H142.925ZM175.469 51.6523H180.66V46.4618H175.469V51.6523ZM174.327 30.5788H189.743V20.1977H174.327V30.5788ZM184.553 25.3883V92H194.934V25.3883H184.553ZM189.743 86.8095H174.327V97.1905H189.743V86.8095ZM179.518 92V25.3883H169.137V92H179.518ZM144.067 86.8095H128.651V97.1905H144.067V86.8095ZM133.841 92V25.3883H123.46V92H133.841ZM128.651 30.5788H144.067V20.1977H128.651V30.5788ZM138.876 25.3883V92H149.257V25.3883H138.876ZM175.469 59.4987H142.925V69.8797H175.469V59.4987ZM148.115 64.6892V51.6523H137.734V64.6892H148.115ZM142.925 56.8428H175.469V46.4618H142.925V56.8428ZM170.279 51.6523V64.6892H180.66V51.6523H170.279ZM233.67 90.5726L231.803 95.4154L231.814 95.4198L231.826 95.4242L233.67 90.5726ZM222.061 83.3405L218.465 87.0834L218.483 87.1008L218.501 87.1181L222.061 83.3405ZM214.448 72.3971L209.67 74.4243L209.683 74.4548L209.696 74.4851L214.448 72.3971ZM214.448 44.9911L209.696 42.9031L209.683 42.9335L209.67 42.964L214.448 44.9911ZM233.766 26.8157L231.898 21.9729L231.898 21.9729L233.766 26.8157ZM262.694 26.8157L260.803 31.6493L260.814 31.6539L260.826 31.6584L262.694 26.8157ZM274.208 34.0478L270.612 37.7907L270.63 37.8081L270.649 37.8254L274.208 34.0478ZM281.916 44.9911L277.164 47.0792L277.17 47.0926L277.176 47.106L281.916 44.9911ZM281.916 72.4923L286.668 74.5803L286.674 74.5672L286.68 74.5541L281.916 72.4923ZM274.208 83.4356L277.766 87.2154L277.768 87.2132L274.208 83.4356ZM262.694 90.5726L260.826 85.7298L260.814 85.7344L260.803 85.739L262.694 90.5726ZM256.414 78.4873L254.486 73.6681L254.465 73.6765L254.444 73.6852L256.414 78.4873ZM263.075 74.11L259.405 70.4397L263.075 74.11ZM267.452 67.3537L262.657 65.3656L262.637 65.4159L262.617 65.4667L267.452 67.3537ZM267.452 50.0346L262.617 51.9216L262.637 51.9723L262.657 52.0227L267.452 50.0346ZM263.075 43.2783L259.343 46.8858L259.373 46.9174L259.405 46.9485L263.075 43.2783ZM256.509 38.9009L254.581 43.7202L256.509 38.9009ZM239.951 38.9009L238.023 34.0816L238.002 34.0901L237.981 34.0988L239.951 38.9009ZM233.385 43.2783L237.055 46.9485L233.385 43.2783ZM228.912 50.0346L224.118 48.0466L224.097 48.0969L224.077 48.1476L228.912 50.0346ZM228.912 67.3537L224.062 69.2015L224.089 69.272L224.118 69.3417L228.912 67.3537ZM233.29 74.11L229.558 77.7175L229.588 77.7491L229.62 77.7802L233.29 74.11ZM239.951 78.4873L238.023 83.3066L239.951 78.4873ZM248.325 87.9514C243.632 87.9514 239.378 87.1899 235.515 85.721L231.826 95.4242C236.971 97.381 242.488 98.3324 248.325 98.3324V87.9514ZM235.538 85.7298C231.693 84.2467 228.406 82.1872 225.621 79.5629L218.501 87.1181C222.314 90.7108 226.766 93.4727 231.803 95.4154L235.538 85.7298ZM225.657 79.5976C222.921 76.9689 220.772 73.8865 219.2 70.3091L209.696 74.4851C211.804 79.2818 214.73 83.4949 218.465 87.0834L225.657 79.5976ZM219.227 70.37C217.745 66.8787 216.974 63.0077 216.974 58.6941H206.593C206.593 64.2772 207.598 69.5415 209.67 74.4243L219.227 70.37ZM216.974 58.6941C216.974 54.3806 217.745 50.5096 219.227 47.0183L209.67 42.964C207.598 47.8467 206.593 53.1111 206.593 58.6941H216.974ZM219.2 47.0792C220.762 43.5237 222.928 40.452 225.716 37.8254L218.596 30.2702C214.786 33.8606 211.813 38.0845 209.696 42.9031L219.2 47.0792ZM225.716 37.8254C228.501 35.2011 231.788 33.1415 235.634 31.6584L231.898 21.9729C226.861 23.9155 222.409 26.6774 218.596 30.2702L225.716 37.8254ZM235.634 31.6584C239.425 30.1959 243.607 29.4369 248.23 29.4369V19.0558C242.449 19.0558 236.988 20.0097 231.898 21.9729L235.634 31.6584ZM248.23 29.4369C252.926 29.4369 257.096 30.1989 260.803 31.6493L264.586 21.982C259.537 20.0066 254.065 19.0558 248.23 19.0558V29.4369ZM260.826 31.6584C264.663 33.1384 267.904 35.1886 270.612 37.7907L277.805 30.3049C274.042 26.6899 269.607 23.9186 264.562 21.9729L260.826 31.6584ZM270.649 37.8254C273.436 40.452 275.602 43.5237 277.164 47.0792L286.668 42.9031C284.551 38.0845 281.578 33.8606 277.768 30.2702L270.649 37.8254ZM277.176 47.106C278.688 50.4942 279.486 54.3306 279.486 58.6941H289.867C289.867 53.0342 288.824 47.7352 286.657 42.8763L277.176 47.106ZM279.486 58.6941C279.486 62.9824 278.692 66.8746 277.153 70.4305L286.68 74.5541C288.82 69.6091 289.867 64.3025 289.867 58.6941H279.486ZM277.164 70.4043C275.602 73.9597 273.436 77.0314 270.649 79.658L277.768 87.2132C281.578 83.6228 284.551 79.3989 286.668 74.5803L277.164 70.4043ZM270.651 79.6559C267.939 82.2087 264.685 84.2413 260.826 85.7298L264.562 95.4154C269.584 93.4782 274.007 90.7528 277.766 87.2154L270.651 79.6559ZM260.803 85.739C257.089 87.1921 252.949 87.9514 248.325 87.9514V98.3324C254.105 98.3324 259.544 97.3789 264.586 95.4062L260.803 85.739ZM248.23 85.2004C251.81 85.2004 255.216 84.5889 258.384 83.2894L254.444 73.6852C252.663 74.4159 250.613 74.8194 248.23 74.8194V85.2004ZM258.341 83.3066C261.521 82.0347 264.337 80.1883 266.745 77.7802L259.405 70.4397C258.006 71.8381 256.381 72.9099 254.486 73.6681L258.341 83.3066ZM266.745 77.7803C269.175 75.3505 271.022 72.4847 272.288 69.2406L262.617 65.4667C261.853 67.4247 260.781 69.0631 259.405 70.4397L266.745 77.7803ZM272.247 69.3417C273.618 66.0355 274.26 62.4623 274.26 58.6941H263.879C263.879 61.2699 263.444 63.4697 262.657 65.3656L272.247 69.3417ZM274.26 58.6941C274.26 54.926 273.618 51.3527 272.247 48.0466L262.657 52.0227C263.444 53.9185 263.879 56.1183 263.879 58.6941H274.26ZM272.288 48.1476C271.022 44.9036 269.175 42.0377 266.745 39.608L259.405 46.9485C260.781 48.3252 261.853 49.9636 262.617 51.9216L272.288 48.1476ZM266.807 39.6707C264.441 37.2236 261.632 35.3597 258.436 34.0816L254.581 43.7202C256.461 44.4722 258.029 45.5266 259.343 46.8858L266.807 39.6707ZM258.436 34.0816C255.232 32.7999 251.812 32.1879 248.23 32.1879V42.5689C250.612 42.5689 252.71 42.9719 254.581 43.7202L258.436 34.0816ZM248.23 32.1879C244.648 32.1879 241.228 32.7999 238.023 34.0816L241.879 43.7202C243.75 42.9719 245.848 42.5689 248.23 42.5689V32.1879ZM237.981 34.0988C234.866 35.3765 232.101 37.2219 229.715 39.608L237.055 46.9485C238.475 45.5283 240.087 44.4554 241.921 43.703L237.981 34.0988ZM229.715 39.608C227.308 42.0149 225.445 44.846 224.118 48.0466L233.707 52.0227C234.537 50.0211 235.656 48.3481 237.055 46.9485L229.715 39.608ZM224.077 48.1476C222.798 51.4262 222.199 54.9637 222.199 58.6941H232.58C232.58 56.0806 232.997 53.845 233.748 51.9216L224.077 48.1476ZM222.199 58.6941C222.199 62.3771 222.803 65.8958 224.062 69.2015L233.763 65.5059C232.992 63.4826 232.58 61.2283 232.58 58.6941H222.199ZM224.118 69.3417C225.43 72.5057 227.237 75.3167 229.558 77.7175L237.022 70.5025C235.663 69.0969 234.552 67.4037 233.707 65.3656L224.118 69.3417ZM229.62 77.7802C232.028 80.1883 234.843 82.0347 238.023 83.3066L241.879 73.6681C239.983 72.9099 238.358 71.8381 236.96 70.4397L229.62 77.7802ZM238.023 83.3066C241.228 84.5883 244.648 85.2004 248.23 85.2004V74.8194C245.848 74.8194 243.75 74.4164 241.879 73.6681L238.023 83.3066Z" fill="#005669" mask="url(#path-2-outside-1_34_321)"/>
<mask id="path-4-outside-2_34_321" maskUnits="userSpaceOnUse" x="-4.17694" y="209" width="256" height="79" fill="black">
<rect fill="white" x="-4.17694" y="209" width="256" height="79"/>
<path d="M25.7081 282L3.91657 215.388H19.9034L38.8402 274.387H30.8467L50.6399 215.388H64.9139L83.9458 274.387H76.2379L95.6504 215.388H110.4L88.6086 282H72.0509L55.2076 230.233H59.585L42.2659 282H25.7081ZM143.653 242.223H175.721V254.213H143.653V242.223ZM144.794 269.629H181.05V282H129.474V215.388H179.813V227.759H144.794V269.629ZM215.978 258.876C215.978 256.656 216.326 254.689 217.024 252.976C217.786 251.263 218.705 249.741 219.784 248.409C220.926 247.076 222.131 245.839 223.4 244.697C224.669 243.556 225.842 242.477 226.921 241.462C228.063 240.384 228.983 239.273 229.681 238.131C230.442 236.989 230.822 235.721 230.822 234.325C230.822 232.041 229.871 230.201 227.968 228.806C226.128 227.41 223.654 226.712 220.545 226.712C217.564 226.712 214.899 227.347 212.552 228.615C210.205 229.821 208.27 231.534 206.747 233.754L195.233 226.998C197.77 223.128 201.291 220.051 205.795 217.767C210.3 215.42 215.756 214.246 222.163 214.246C226.921 214.246 231.108 214.944 234.724 216.34C238.34 217.672 241.163 219.639 243.193 222.24C245.287 224.841 246.333 228.044 246.333 231.851C246.333 234.325 245.953 236.514 245.192 238.417C244.43 240.32 243.447 241.97 242.242 243.365C241.036 244.761 239.736 246.061 238.34 247.267C237.008 248.472 235.739 249.646 234.534 250.788C233.328 251.93 232.313 253.135 231.489 254.404C230.727 255.673 230.347 257.163 230.347 258.876H215.978ZM223.21 282.761C220.545 282.761 218.357 281.905 216.644 280.192C214.931 278.479 214.074 276.449 214.074 274.102C214.074 271.691 214.931 269.693 216.644 268.107C218.357 266.457 220.545 265.633 223.21 265.633C225.938 265.633 228.126 266.457 229.776 268.107C231.489 269.693 232.345 271.691 232.345 274.102C232.345 276.449 231.489 278.479 229.776 280.192C228.126 281.905 225.938 282.761 223.21 282.761Z"/>
</mask>
<path d="M25.7081 282L20.7749 283.614L21.945 287.191H25.7081V282ZM3.91657 215.388V210.198H-3.24269L-1.01668 217.002L3.91657 215.388ZM19.9034 215.388L24.8456 213.802L23.6887 210.198H19.9034V215.388ZM38.8402 274.387V279.578H45.9575L43.7823 272.801L38.8402 274.387ZM30.8467 274.387L25.9258 272.736L23.6306 279.578H30.8467V274.387ZM50.6399 215.388V210.198H46.9064L45.719 213.737L50.6399 215.388ZM64.9139 215.388L69.8538 213.795L68.6934 210.198H64.9139V215.388ZM83.9458 274.387V279.578H91.0741L88.8857 272.794L83.9458 274.387ZM76.2379 274.387L71.3074 272.765L69.0658 279.578H76.2379V274.387ZM95.6504 215.388V210.198H91.894L90.72 213.766L95.6504 215.388ZM110.4 215.388L115.333 217.002L117.559 210.198H110.4V215.388ZM88.6086 282V287.191H92.3718L93.5419 283.614L88.6086 282ZM72.0509 282L67.115 283.606L68.2813 287.191H72.0509V282ZM55.2076 230.233V225.043H48.0604L50.2718 231.839L55.2076 230.233ZM59.5849 230.233L64.5073 231.88L66.7948 225.043H59.5849V230.233ZM42.2659 282V287.191H46.0027L47.1882 283.647L42.2659 282ZM30.6414 280.386L8.84982 213.774L-1.01668 217.002L20.7749 283.614L30.6414 280.386ZM3.91657 220.579H19.9034V210.198H3.91657V220.579ZM14.9612 216.975L33.898 275.974L43.7823 272.801L24.8456 213.802L14.9612 216.975ZM38.8402 269.197H30.8467V279.578H38.8402V269.197ZM35.7677 276.038L55.5609 217.039L45.719 213.737L25.9258 272.736L35.7677 276.038ZM50.6399 220.579H64.9139V210.198H50.6399V220.579ZM59.974 216.982L79.0059 275.981L88.8857 272.794L69.8538 213.795L59.974 216.982ZM83.9458 269.197H76.2379V279.578H83.9458V269.197ZM81.1684 276.01L100.581 217.011L90.72 213.766L71.3074 272.765L81.1684 276.01ZM95.6504 220.579H110.4V210.198H95.6504V220.579ZM105.467 213.774L83.6754 280.386L93.5419 283.614L115.333 217.002L105.467 213.774ZM88.6086 276.809H72.0509V287.191H88.6086V276.809ZM76.9867 280.394L60.1434 228.627L50.2718 231.839L67.115 283.606L76.9867 280.394ZM55.2076 235.424H59.5849V225.043H55.2076V235.424ZM54.6626 228.586L37.3435 280.353L47.1882 283.647L64.5073 231.88L54.6626 228.586ZM42.2659 276.809H25.7081V287.191H42.2659V276.809ZM143.653 242.223V237.033H138.462V242.223H143.653ZM175.721 242.223H180.912V237.033H175.721V242.223ZM175.721 254.213V259.404H180.912V254.213H175.721ZM143.653 254.213H138.462V259.404H143.653V254.213ZM144.794 269.629H139.604V274.82H144.794V269.629ZM181.05 269.629H186.241V264.439H181.05V269.629ZM181.05 282V287.191H186.241V282H181.05ZM129.474 282H124.283V287.191H129.474V282ZM129.474 215.388V210.198H124.283V215.388H129.474ZM179.813 215.388H185.004V210.198H179.813V215.388ZM179.813 227.759V232.95H185.004V227.759H179.813ZM144.794 227.759V222.568H139.604V227.759H144.794ZM143.653 247.414H175.721V237.033H143.653V247.414ZM170.531 242.223V254.213H180.912V242.223H170.531ZM175.721 249.023H143.653V259.404H175.721V249.023ZM148.843 254.213V242.223H138.462V254.213H148.843ZM144.794 274.82H181.05V264.439H144.794V274.82ZM175.86 269.629V282H186.241V269.629H175.86ZM181.05 276.809H129.474V287.191H181.05V276.809ZM134.664 282V215.388H124.283V282H134.664ZM129.474 220.579H179.813V210.198H129.474V220.579ZM174.623 215.388V227.759H185.004V215.388H174.623ZM179.813 222.568H144.794V232.95H179.813V222.568ZM139.604 227.759V269.629H149.985V227.759H139.604ZM215.978 258.876H210.787V264.067H215.978V258.876ZM217.024 252.976L212.281 250.868L212.248 250.943L212.217 251.018L217.024 252.976ZM219.784 248.409L215.843 245.031L215.796 245.086L215.75 245.143L219.784 248.409ZM226.921 241.462L230.478 245.242L230.485 245.236L226.921 241.462ZM229.681 238.131L225.362 235.252L225.305 235.337L225.252 235.425L229.681 238.131ZM227.968 228.806L224.831 232.941L224.864 232.967L224.898 232.991L227.968 228.806ZM212.552 228.615L214.923 233.233L214.972 233.208L215.02 233.182L212.552 228.615ZM206.747 233.754L204.12 238.231L208.292 240.679L211.028 236.689L206.747 233.754ZM195.233 226.998L190.892 224.151L187.901 228.714L192.606 231.474L195.233 226.998ZM205.795 217.767L208.143 222.397L208.169 222.384L208.194 222.37L205.795 217.767ZM234.724 216.34L232.855 221.182L232.892 221.197L232.93 221.21L234.724 216.34ZM243.193 222.24L239.101 225.433L239.125 225.464L239.15 225.494L243.193 222.24ZM245.192 238.417L250.011 240.345V240.345L245.192 238.417ZM238.34 247.267L234.947 243.338L234.902 243.378L234.858 243.418L238.34 247.267ZM234.534 250.788L238.103 254.556L238.103 254.556L234.534 250.788ZM231.489 254.404L227.137 251.575L227.086 251.653L227.038 251.733L231.489 254.404ZM230.347 258.876V264.067H235.537V258.876H230.347ZM216.644 280.192L212.973 283.862L216.644 280.192ZM216.644 268.107L220.17 271.915L220.207 271.881L220.244 271.846L216.644 268.107ZM229.776 268.107L226.105 271.777L226.176 271.848L226.249 271.915L229.776 268.107ZM229.776 280.192L226.105 276.522L226.071 276.556L226.037 276.592L229.776 280.192ZM221.168 258.876C221.168 257.196 221.432 255.914 221.831 254.935L212.217 251.018C211.221 253.464 210.787 256.116 210.787 258.876H221.168ZM221.767 255.084C222.361 253.748 223.051 252.622 223.818 251.675L215.75 245.143C214.36 246.86 213.21 248.779 212.281 250.868L221.767 255.084ZM223.725 251.787C224.725 250.62 225.774 249.544 226.872 248.556L219.928 240.839C218.488 242.135 217.127 243.533 215.843 245.031L223.725 251.787ZM226.872 248.556C228.166 247.392 229.368 246.287 230.478 245.242L223.363 237.682C222.317 238.667 221.172 239.719 219.928 240.839L226.872 248.556ZM230.485 245.236C231.905 243.895 233.135 242.433 234.11 240.838L225.252 235.425C224.831 236.113 224.221 236.873 223.357 237.688L230.485 245.236ZM233.999 241.011C235.339 239.001 236.013 236.727 236.013 234.325H225.632C225.632 234.714 225.544 234.978 225.362 235.252L233.999 241.011ZM236.013 234.325C236.013 230.324 234.221 226.955 231.037 224.62L224.898 232.991C225.521 233.448 225.632 233.759 225.632 234.325H236.013ZM231.105 224.671C228.095 222.388 224.398 221.522 220.545 221.522V231.903C222.91 231.903 224.16 232.433 224.831 232.941L231.105 224.671ZM220.545 221.522C216.805 221.522 213.275 222.324 210.084 224.049L215.02 233.182C216.523 232.369 218.322 231.903 220.545 231.903V221.522ZM210.181 223.998C207.051 225.605 204.466 227.903 202.466 230.819L211.028 236.689C212.074 235.164 213.358 234.036 214.923 233.233L210.181 223.998ZM209.374 229.277L197.86 222.521L192.606 231.474L204.12 238.231L209.374 229.277ZM199.573 229.844C201.569 226.801 204.371 224.309 208.143 222.397L203.448 213.138C198.211 215.793 193.972 219.455 190.892 224.151L199.573 229.844ZM208.194 222.37C211.789 220.497 216.377 219.437 222.163 219.437V209.056C215.134 209.056 208.81 210.343 203.397 213.164L208.194 222.37ZM222.163 219.437C226.423 219.437 229.954 220.062 232.855 221.182L236.593 211.497C232.262 209.826 227.419 209.056 222.163 209.056V219.437ZM232.93 221.21C235.793 222.265 237.76 223.715 239.101 225.433L247.285 219.046C244.566 215.563 240.887 213.079 236.518 211.469L232.93 221.21ZM239.15 225.494C240.398 227.046 241.143 229.054 241.143 231.851H251.524C251.524 227.035 250.175 222.636 247.237 218.985L239.15 225.494ZM241.143 231.851C241.143 233.798 240.843 235.312 240.372 236.489L250.011 240.345C251.062 237.716 251.524 234.852 251.524 231.851H241.143ZM240.372 236.489C239.801 237.917 239.103 239.058 238.313 239.973L246.17 246.758C247.791 244.881 249.059 242.723 250.011 240.345L240.372 236.489ZM238.313 239.973C237.273 241.177 236.152 242.298 234.947 243.338L241.733 251.195C243.32 249.824 244.799 248.345 246.17 246.758L238.313 239.973ZM234.858 243.418C233.498 244.648 232.2 245.848 230.964 247.02L238.103 254.556C239.278 253.443 240.517 252.297 241.822 251.116L234.858 243.418ZM230.964 247.02C229.49 248.416 228.205 249.932 227.137 251.575L235.841 257.232C236.422 256.338 237.166 255.443 238.103 254.556L230.964 247.02ZM227.038 251.733C225.72 253.929 225.156 256.373 225.156 258.876H235.537C235.537 257.954 235.734 257.416 235.939 257.074L227.038 251.733ZM230.347 253.686H215.978V264.067H230.347V253.686ZM223.21 277.571C221.771 277.571 220.951 277.159 220.314 276.522L212.973 283.862C215.762 286.65 219.32 287.952 223.21 287.952V277.571ZM220.314 276.522C219.54 275.747 219.265 275.024 219.265 274.102H208.884C208.884 277.874 210.322 281.211 212.973 283.862L220.314 276.522ZM219.265 274.102C219.265 273.083 219.557 272.483 220.17 271.915L213.117 264.298C210.305 266.902 208.884 270.299 208.884 274.102H219.265ZM220.244 271.846C220.87 271.243 221.712 270.823 223.21 270.823V260.442C219.378 260.442 215.843 261.672 213.043 264.368L220.244 271.846ZM223.21 270.823C224.813 270.823 225.594 271.266 226.105 271.777L233.446 264.436C230.659 261.649 227.063 260.442 223.21 260.442V270.823ZM226.249 271.915C226.863 272.483 227.154 273.083 227.154 274.102H237.536C237.536 270.299 236.115 266.902 233.302 264.298L226.249 271.915ZM227.154 274.102C227.154 275.024 226.88 275.747 226.105 276.522L233.446 283.862C236.097 281.211 237.536 277.874 237.536 274.102H227.154ZM226.037 276.592C225.513 277.136 224.754 277.571 223.21 277.571V287.952C227.122 287.952 230.74 286.674 233.515 283.792L226.037 276.592Z" fill="#005669" mask="url(#path-4-outside-2_34_321)"/>
</svg>
