<svg width="395" height="121" viewBox="0 0 395 121" fill="none" xmlns="http://www.w3.org/2000/svg">
<mask id="path-1-outside-1_25_161" maskUnits="userSpaceOnUse" x="-2.02698" y="-2" width="399" height="125" fill="black">
<rect fill="white" x="-2.02698" y="-2" width="399" height="125"/>
<path d="M16.0672 43.6554C13.0089 43.6554 10.0779 43.2549 7.27437 42.4539C4.47085 41.6164 2.21346 40.5424 0.502218 39.2316L3.506 32.5687C5.14442 33.7338 7.07412 34.6987 9.29509 35.4632C11.5525 36.1914 13.8281 36.5555 16.1219 36.5555C17.8695 36.5555 19.2713 36.3917 20.3272 36.064C21.4194 35.6999 22.2204 35.2084 22.7302 34.5894C23.2399 33.9705 23.4948 33.2605 23.4948 32.4595C23.4948 31.44 23.0943 30.639 22.2933 30.0564C21.4923 29.4375 20.4364 28.946 19.1256 28.5819C17.8149 28.1814 16.3585 27.8173 14.7565 27.4896C13.1909 27.1255 11.6071 26.6886 10.0051 26.1788C8.43947 25.6691 7.0013 25.0137 5.69056 24.2127C4.37982 23.4117 3.30574 22.3559 2.46833 21.0451C1.66732 19.7344 1.26682 18.0595 1.26682 16.0206C1.26682 13.8361 1.84937 11.8517 3.01447 10.0677C4.21598 8.2472 6.00004 6.80903 8.36665 5.75316C10.7697 4.66088 13.7735 4.11473 17.378 4.11473C19.781 4.11473 22.1476 4.40601 24.4778 4.98856C26.808 5.5347 28.8652 6.37212 30.6492 7.50081L27.9185 14.2183C26.1345 13.1989 24.3504 12.4525 22.5663 11.9792C20.7823 11.4694 19.0346 11.2146 17.3234 11.2146C15.6121 11.2146 14.2104 11.4148 13.1181 11.8153C12.0258 12.2158 11.243 12.7438 10.7697 13.3991C10.2964 14.0181 10.0597 14.7463 10.0597 15.5837C10.0597 16.5668 10.4602 17.3678 11.2612 17.9867C12.0622 18.5693 13.1181 19.0426 14.4288 19.4067C15.7396 19.7708 17.1777 20.1349 18.7433 20.499C20.3454 20.8631 21.9292 21.2818 23.4948 21.7551C25.0968 22.2284 26.5532 22.8656 27.8639 23.6666C29.1746 24.4676 30.2305 25.5235 31.0315 26.8342C31.8689 28.145 32.2876 29.8016 32.2876 31.8041C32.2876 33.9523 31.6869 35.9184 30.4854 37.7024C29.2839 39.4865 27.4816 40.9247 25.0786 42.0169C22.712 43.1092 19.7082 43.6554 16.0672 43.6554ZM52.8605 43.4369C49.5109 43.4369 46.5617 42.7815 44.013 41.4708C41.5008 40.1601 39.5529 38.376 38.1693 36.1186C36.7858 33.8248 36.094 31.2216 36.094 28.3088C36.094 25.3596 36.7676 22.7564 38.1147 20.499C39.4983 18.2052 41.3734 16.4211 43.74 15.1468C46.1066 13.8361 48.7827 13.1807 51.7683 13.1807C54.6446 13.1807 57.2297 13.7996 59.5235 15.0376C61.8537 16.2391 63.6923 17.9867 65.0395 20.2805C66.3866 22.5379 67.0602 25.2504 67.0602 28.418C67.0602 28.7457 67.042 29.128 67.0056 29.5649C66.9692 29.9654 66.9328 30.3477 66.8964 30.7118H43.03V25.7419H62.418L59.1412 27.2165C59.1412 25.6873 58.8317 24.3584 58.2127 23.2297C57.5938 22.101 56.7381 21.2272 55.6459 20.6082C54.5536 19.9528 53.2792 19.6251 51.8229 19.6251C50.3665 19.6251 49.074 19.9528 47.9453 20.6082C46.853 21.2272 45.9974 22.1192 45.3784 23.2843C44.7594 24.413 44.45 25.7601 44.45 27.3257V28.6365C44.45 30.2385 44.7958 31.6585 45.4876 32.8964C46.2158 34.0979 47.2171 35.0263 48.4914 35.6817C49.8021 36.3007 51.3313 36.6101 53.079 36.6101C54.6446 36.6101 56.01 36.3735 57.1751 35.9002C58.3766 35.4268 59.4688 34.7169 60.4519 33.7702L64.9849 38.6855C63.6377 40.2147 61.9447 41.398 59.9058 42.2354C57.8668 43.0364 55.5184 43.4369 52.8605 43.4369ZM73.2785 43V13.6176H81.416V21.9189L80.2691 19.5159C81.143 17.4406 82.5447 15.875 84.4744 14.8191C86.4041 13.7268 88.7525 13.1807 91.5197 13.1807V21.0451C91.1556 21.0087 90.8279 20.9905 90.5366 20.9905C90.2453 20.9541 89.9359 20.9359 89.6082 20.9359C87.278 20.9359 85.3847 21.6095 83.9283 22.9566C82.5083 24.2674 81.7983 26.3245 81.7983 29.128V43H73.2785ZM106.119 43L93.7759 13.6176H102.569L112.836 38.9039H108.467L119.117 13.6176H127.309L114.912 43H106.119ZM131.332 43V13.6176H139.851V43H131.332ZM135.592 9.52153C134.026 9.52153 132.752 9.06642 131.769 8.15618C130.786 7.24594 130.294 6.11725 130.294 4.7701C130.294 3.42295 130.786 2.29426 131.769 1.38403C132.752 0.47379 134.026 0.0186719 135.592 0.0186719C137.157 0.0186719 138.432 0.455586 139.415 1.32941C140.398 2.16683 140.889 3.25911 140.889 4.60626C140.889 6.02623 140.398 7.20953 139.415 8.15618C138.468 9.06642 137.194 9.52153 135.592 9.52153ZM162.504 43.4369C159.337 43.4369 156.515 42.7997 154.039 41.5254C151.563 40.2147 149.615 38.4124 148.195 36.1186C146.812 33.8248 146.12 31.2216 146.12 28.3088C146.12 25.3596 146.812 22.7564 148.195 20.499C149.615 18.2052 151.563 16.4211 154.039 15.1468C156.515 13.8361 159.337 13.1807 162.504 13.1807C165.599 13.1807 168.293 13.8361 170.587 15.1468C172.881 16.4211 174.574 18.2598 175.666 20.6628L169.058 24.2127C168.293 22.8292 167.329 21.8097 166.164 21.1543C165.035 20.499 163.797 20.1713 162.45 20.1713C160.993 20.1713 159.683 20.499 158.518 21.1543C157.352 21.8097 156.424 22.7382 155.732 23.9397C155.077 25.1412 154.749 26.5976 154.749 28.3088C154.749 30.02 155.077 31.4764 155.732 32.6779C156.424 33.8794 157.352 34.8079 158.518 35.4632C159.683 36.1186 160.993 36.4463 162.45 36.4463C163.797 36.4463 165.035 36.1368 166.164 35.5179C167.329 34.8625 168.293 33.8248 169.058 32.4049L175.666 36.0094C174.574 38.376 172.881 40.2147 170.587 41.5254C168.293 42.7997 165.599 43.4369 162.504 43.4369ZM195.327 43.4369C191.977 43.4369 189.028 42.7815 186.479 41.4708C183.967 40.1601 182.019 38.376 180.635 36.1186C179.252 33.8248 178.56 31.2216 178.56 28.3088C178.56 25.3596 179.234 22.7564 180.581 20.499C181.964 18.2052 183.839 16.4211 186.206 15.1468C188.573 13.8361 191.249 13.1807 194.234 13.1807C197.111 13.1807 199.696 13.7996 201.99 15.0376C204.32 16.2391 206.158 17.9867 207.506 20.2805C208.853 22.5379 209.526 25.2504 209.526 28.418C209.526 28.7457 209.508 29.128 209.472 29.5649C209.435 29.9654 209.399 30.3477 209.362 30.7118H185.496V25.7419H204.884L201.607 27.2165C201.607 25.6873 201.298 24.3584 200.679 23.2297C200.06 22.101 199.204 21.2272 198.112 20.6082C197.02 19.9528 195.745 19.6251 194.289 19.6251C192.833 19.6251 191.54 19.9528 190.411 20.6082C189.319 21.2272 188.463 22.1192 187.844 23.2843C187.226 24.413 186.916 25.7601 186.916 27.3257V28.6365C186.916 30.2385 187.262 31.6585 187.954 32.8964C188.682 34.0979 189.683 35.0263 190.958 35.6817C192.268 36.3007 193.797 36.6101 195.545 36.6101C197.111 36.6101 198.476 36.3735 199.641 35.9002C200.843 35.4268 201.935 34.7169 202.918 33.7702L207.451 38.6855C206.104 40.2147 204.411 41.398 202.372 42.2354C200.333 43.0364 197.985 43.4369 195.327 43.4369ZM3.506 110V71.7701H12.3535V110H3.506ZM59.0008 80.1807C61.331 80.1807 63.3881 80.654 65.1722 81.6006C66.9927 82.5109 68.4126 83.9309 69.4321 85.8606C70.488 87.7538 71.0159 90.1933 71.0159 93.1788V110H62.4961V94.4896C62.4961 92.123 62.0046 90.3753 61.0215 89.2466C60.0385 88.1179 58.6549 87.5536 56.8708 87.5536C55.6329 87.5536 54.5224 87.8449 53.5394 88.4274C52.5563 88.9736 51.7917 89.811 51.2456 90.9397C50.6994 92.0684 50.4264 93.5065 50.4264 95.2542V110H41.9066V94.4896C41.9066 92.123 41.415 90.3753 40.432 89.2466C39.4853 88.1179 38.12 87.5536 36.3359 87.5536C35.098 87.5536 33.9875 87.8449 33.0045 88.4274C32.0214 88.9736 31.2568 89.811 30.7107 90.9397C30.1645 92.0684 29.8915 93.5065 29.8915 95.2542V110H21.3716V80.6176H29.5092V88.6459L27.98 86.2975C28.9994 84.2949 30.4376 82.784 32.2945 81.7645C34.1878 80.7086 36.3359 80.1807 38.7389 80.1807C41.4332 80.1807 43.7816 80.8725 45.7842 82.256C47.8231 83.6032 49.1702 85.6785 49.8256 88.482L46.8218 87.6628C47.8049 85.369 49.3705 83.5486 51.5186 82.2014C53.7032 80.8543 56.1973 80.1807 59.0008 80.1807ZM96.5659 110.437C94.0901 110.437 91.9237 109.891 90.0668 108.798C88.21 107.706 86.7536 106.05 85.6977 103.829C84.6782 101.571 84.1685 98.7313 84.1685 95.3088C84.1685 91.8499 84.66 89.01 85.6431 86.789C86.6262 84.568 88.0461 82.9114 89.903 81.8191C91.7599 80.7268 93.9809 80.1807 96.5659 80.1807C99.333 80.1807 101.809 80.8178 103.993 82.0922C106.214 83.3301 107.962 85.0777 109.236 87.3351C110.547 89.5925 111.203 92.2504 111.203 95.3088C111.203 98.4036 110.547 101.08 109.236 103.337C107.962 105.594 106.214 107.342 103.993 108.58C101.809 109.818 99.333 110.437 96.5659 110.437ZM79.1986 120.595V80.6176H87.3361V86.6251L87.1723 95.3634L87.7184 104.047V120.595H79.1986ZM95.0913 103.446C96.5113 103.446 97.7674 103.119 98.8597 102.463C99.9884 101.808 100.88 100.879 101.536 99.6779C102.228 98.44 102.573 96.9836 102.573 95.3088C102.573 93.5976 102.228 92.1412 101.536 90.9397C100.88 89.7382 99.9884 88.8097 98.8597 88.1543C97.7674 87.499 96.5113 87.1713 95.0913 87.1713C93.6714 87.1713 92.397 87.499 91.2684 88.1543C90.1397 88.8097 89.2476 89.7382 88.5923 90.9397C87.9369 92.1412 87.6092 93.5976 87.6092 95.3088C87.6092 96.9836 87.9369 98.44 88.5923 99.6779C89.2476 100.879 90.1397 101.808 91.2684 102.463C92.397 103.119 93.6714 103.446 95.0913 103.446ZM117.452 110V80.6176H125.59V88.9189L124.443 86.5159C125.316 84.4406 126.718 82.875 128.648 81.8191C130.578 80.7268 132.926 80.1807 135.693 80.1807V88.0451C135.329 88.0087 135.001 87.9905 134.71 87.9905C134.419 87.9541 134.109 87.9359 133.782 87.9359C131.451 87.9359 129.558 88.6095 128.102 89.9566C126.682 91.2674 125.972 93.3245 125.972 96.128V110H117.452ZM155.073 110.437C151.942 110.437 149.156 109.782 146.717 108.471C144.314 107.16 142.403 105.376 140.983 103.119C139.599 100.825 138.907 98.2216 138.907 95.3088C138.907 92.3596 139.599 89.7564 140.983 87.499C142.403 85.2052 144.314 83.4211 146.717 82.1468C149.156 80.8361 151.942 80.1807 155.073 80.1807C158.168 80.1807 160.935 80.8361 163.374 82.1468C165.814 83.4211 167.725 85.187 169.109 87.4444C170.492 89.7017 171.184 92.3232 171.184 95.3088C171.184 98.2216 170.492 100.825 169.109 103.119C167.725 105.376 165.814 107.16 163.374 108.471C160.935 109.782 158.168 110.437 155.073 110.437ZM155.073 103.446C156.493 103.446 157.767 103.119 158.896 102.463C160.025 101.808 160.917 100.879 161.572 99.6779C162.227 98.44 162.555 96.9836 162.555 95.3088C162.555 93.5976 162.227 92.1412 161.572 90.9397C160.917 89.7382 160.025 88.8097 158.896 88.1543C157.767 87.499 156.493 87.1713 155.073 87.1713C153.653 87.1713 152.379 87.499 151.25 88.1543C150.121 88.8097 149.211 89.7382 148.519 90.9397C147.864 92.1412 147.536 93.5976 147.536 95.3088C147.536 96.9836 147.864 98.44 148.519 99.6779C149.211 100.879 150.121 101.808 151.25 102.463C152.379 103.119 153.653 103.446 155.073 103.446ZM184.599 110L172.256 80.6176H181.049L191.316 105.904H186.947L197.597 80.6176H205.789L193.392 110H184.599ZM223.594 110.437C220.244 110.437 217.295 109.782 214.746 108.471C212.234 107.16 210.286 105.376 208.903 103.119C207.519 100.825 206.827 98.2216 206.827 95.3088C206.827 92.3596 207.501 89.7564 208.848 87.499C210.231 85.2052 212.107 83.4211 214.473 82.1468C216.84 80.8361 219.516 80.1807 222.501 80.1807C225.378 80.1807 227.963 80.7996 230.257 82.0376C232.587 83.2391 234.426 84.9867 235.773 87.2805C237.12 89.5379 237.793 92.2504 237.793 95.418C237.793 95.7457 237.775 96.128 237.739 96.5649C237.702 96.9654 237.666 97.3477 237.63 97.7118H213.763V92.7419H233.151L229.874 94.2165C229.874 92.6873 229.565 91.3584 228.946 90.2297C228.327 89.101 227.471 88.2272 226.379 87.6082C225.287 86.9528 224.012 86.6251 222.556 86.6251C221.1 86.6251 219.807 86.9528 218.678 87.6082C217.586 88.2272 216.731 89.1192 216.112 90.2843C215.493 91.413 215.183 92.7601 215.183 94.3257V95.6365C215.183 97.2385 215.529 98.6585 216.221 99.8964C216.949 101.098 217.95 102.026 219.225 102.682C220.535 103.301 222.065 103.61 223.812 103.61C225.378 103.61 226.743 103.373 227.908 102.9C229.11 102.427 230.202 101.717 231.185 100.77L235.718 105.685C234.371 107.215 232.678 108.398 230.639 109.235C228.6 110.036 226.252 110.437 223.594 110.437ZM281.641 80.1807C283.971 80.1807 286.028 80.654 287.812 81.6006C289.633 82.5109 291.053 83.9309 292.072 85.8606C293.128 87.7538 293.656 90.1933 293.656 93.1788V110H285.136V94.4896C285.136 92.123 284.645 90.3753 283.662 89.2466C282.679 88.1179 281.295 87.5536 279.511 87.5536C278.273 87.5536 277.162 87.8449 276.179 88.4274C275.196 88.9736 274.432 89.811 273.886 90.9397C273.34 92.0684 273.066 93.5065 273.066 95.2542V110H264.547V94.4896C264.547 92.123 264.055 90.3753 263.072 89.2466C262.125 88.1179 260.76 87.5536 258.976 87.5536C257.738 87.5536 256.628 87.8449 255.645 88.4274C254.661 88.9736 253.897 89.811 253.351 90.9397C252.805 92.0684 252.532 93.5065 252.532 95.2542V110H244.012V80.6176H252.149V88.6459L250.62 86.2975C251.639 84.2949 253.078 82.784 254.935 81.7645C256.828 80.7086 258.976 80.1807 261.379 80.1807C264.073 80.1807 266.422 80.8725 268.424 82.256C270.463 83.6032 271.81 85.6785 272.466 88.482L269.462 87.6628C270.445 85.369 272.011 83.5486 274.159 82.2014C276.343 80.8543 278.837 80.1807 281.641 80.1807ZM316.634 110.437C313.284 110.437 310.335 109.782 307.787 108.471C305.274 107.16 303.326 105.376 301.943 103.119C300.559 100.825 299.867 98.2216 299.867 95.3088C299.867 92.3596 300.541 89.7564 301.888 87.499C303.272 85.2052 305.147 83.4211 307.513 82.1468C309.88 80.8361 312.556 80.1807 315.542 80.1807C318.418 80.1807 321.003 80.7996 323.297 82.0376C325.627 83.2391 327.466 84.9867 328.813 87.2805C330.16 89.5379 330.834 92.2504 330.834 95.418C330.834 95.7457 330.815 96.128 330.779 96.5649C330.743 96.9654 330.706 97.3477 330.67 97.7118H306.803V92.7419H326.191L322.915 94.2165C322.915 92.6873 322.605 91.3584 321.986 90.2297C321.367 89.101 320.512 88.2272 319.419 87.6082C318.327 86.9528 317.053 86.6251 315.596 86.6251C314.14 86.6251 312.847 86.9528 311.719 87.6082C310.626 88.2272 309.771 89.1192 309.152 90.2843C308.533 91.413 308.223 92.7601 308.223 94.3257V95.6365C308.223 97.2385 308.569 98.6585 309.261 99.8964C309.989 101.098 310.991 102.026 312.265 102.682C313.576 103.301 315.105 103.61 316.852 103.61C318.418 103.61 319.783 103.373 320.949 102.9C322.15 102.427 323.242 101.717 324.225 100.77L328.758 105.685C327.411 107.215 325.718 108.398 323.679 109.235C321.64 110.036 319.292 110.437 316.634 110.437ZM354.911 80.1807C357.241 80.1807 359.316 80.654 361.137 81.6006C362.994 82.5109 364.45 83.9309 365.506 85.8606C366.562 87.7538 367.09 90.1933 367.09 93.1788V110H358.57V94.4896C358.57 92.123 358.042 90.3753 356.986 89.2466C355.967 88.1179 354.51 87.5536 352.617 87.5536C351.27 87.5536 350.05 87.8449 348.958 88.4274C347.902 88.9736 347.065 89.8292 346.446 90.9943C345.863 92.1594 345.572 93.6522 345.572 95.4726V110H337.052V80.6176H345.19V88.7551L343.66 86.2975C344.716 84.3314 346.227 82.8204 348.193 81.7645C350.159 80.7086 352.399 80.1807 354.911 80.1807ZM387.374 110.437C383.915 110.437 381.221 109.563 379.291 107.815C377.361 106.031 376.396 103.392 376.396 99.8964V74.1185H384.916V99.7872C384.916 101.025 385.244 101.99 385.899 102.682C386.555 103.337 387.447 103.665 388.575 103.665C389.922 103.665 391.069 103.301 392.016 102.572L394.31 108.58C393.436 109.199 392.38 109.672 391.142 110C389.941 110.291 388.685 110.437 387.374 110.437ZM371.863 87.8267V81.273H392.234V87.8267H371.863Z"/>
</mask>
<path d="M16.0672 43.6554C13.0089 43.6554 10.0779 43.2549 7.27437 42.4539C4.47085 41.6164 2.21346 40.5424 0.502218 39.2316L3.506 32.5687C5.14442 33.7338 7.07412 34.6987 9.29509 35.4632C11.5525 36.1914 13.8281 36.5555 16.1219 36.5555C17.8695 36.5555 19.2713 36.3917 20.3272 36.064C21.4194 35.6999 22.2204 35.2084 22.7302 34.5894C23.2399 33.9705 23.4948 33.2605 23.4948 32.4595C23.4948 31.44 23.0943 30.639 22.2933 30.0564C21.4923 29.4375 20.4364 28.946 19.1256 28.5819C17.8149 28.1814 16.3585 27.8173 14.7565 27.4896C13.1909 27.1255 11.6071 26.6886 10.0051 26.1788C8.43947 25.6691 7.0013 25.0137 5.69056 24.2127C4.37982 23.4117 3.30574 22.3559 2.46833 21.0451C1.66732 19.7344 1.26682 18.0595 1.26682 16.0206C1.26682 13.8361 1.84937 11.8517 3.01447 10.0677C4.21598 8.2472 6.00004 6.80903 8.36665 5.75316C10.7697 4.66088 13.7735 4.11473 17.378 4.11473C19.781 4.11473 22.1476 4.40601 24.4778 4.98856C26.808 5.5347 28.8652 6.37212 30.6492 7.50081L27.9185 14.2183C26.1345 13.1989 24.3504 12.4525 22.5663 11.9792C20.7823 11.4694 19.0346 11.2146 17.3234 11.2146C15.6121 11.2146 14.2104 11.4148 13.1181 11.8153C12.0258 12.2158 11.243 12.7438 10.7697 13.3991C10.2964 14.0181 10.0597 14.7463 10.0597 15.5837C10.0597 16.5668 10.4602 17.3678 11.2612 17.9867C12.0622 18.5693 13.1181 19.0426 14.4288 19.4067C15.7396 19.7708 17.1777 20.1349 18.7433 20.499C20.3454 20.8631 21.9292 21.2818 23.4948 21.7551C25.0968 22.2284 26.5532 22.8656 27.8639 23.6666C29.1746 24.4676 30.2305 25.5235 31.0315 26.8342C31.8689 28.145 32.2876 29.8016 32.2876 31.8041C32.2876 33.9523 31.6869 35.9184 30.4854 37.7024C29.2839 39.4865 27.4816 40.9247 25.0786 42.0169C22.712 43.1092 19.7082 43.6554 16.0672 43.6554ZM52.8605 43.4369C49.5109 43.4369 46.5617 42.7815 44.013 41.4708C41.5008 40.1601 39.5529 38.376 38.1693 36.1186C36.7858 33.8248 36.094 31.2216 36.094 28.3088C36.094 25.3596 36.7676 22.7564 38.1147 20.499C39.4983 18.2052 41.3734 16.4211 43.74 15.1468C46.1066 13.8361 48.7827 13.1807 51.7683 13.1807C54.6446 13.1807 57.2297 13.7996 59.5235 15.0376C61.8537 16.2391 63.6923 17.9867 65.0395 20.2805C66.3866 22.5379 67.0602 25.2504 67.0602 28.418C67.0602 28.7457 67.042 29.128 67.0056 29.5649C66.9692 29.9654 66.9328 30.3477 66.8964 30.7118H43.03V25.7419H62.418L59.1412 27.2165C59.1412 25.6873 58.8317 24.3584 58.2127 23.2297C57.5938 22.101 56.7381 21.2272 55.6459 20.6082C54.5536 19.9528 53.2792 19.6251 51.8229 19.6251C50.3665 19.6251 49.074 19.9528 47.9453 20.6082C46.853 21.2272 45.9974 22.1192 45.3784 23.2843C44.7594 24.413 44.45 25.7601 44.45 27.3257V28.6365C44.45 30.2385 44.7958 31.6585 45.4876 32.8964C46.2158 34.0979 47.2171 35.0263 48.4914 35.6817C49.8021 36.3007 51.3313 36.6101 53.079 36.6101C54.6446 36.6101 56.01 36.3735 57.1751 35.9002C58.3766 35.4268 59.4688 34.7169 60.4519 33.7702L64.9849 38.6855C63.6377 40.2147 61.9447 41.398 59.9058 42.2354C57.8668 43.0364 55.5184 43.4369 52.8605 43.4369ZM73.2785 43V13.6176H81.416V21.9189L80.2691 19.5159C81.143 17.4406 82.5447 15.875 84.4744 14.8191C86.4041 13.7268 88.7525 13.1807 91.5197 13.1807V21.0451C91.1556 21.0087 90.8279 20.9905 90.5366 20.9905C90.2453 20.9541 89.9359 20.9359 89.6082 20.9359C87.278 20.9359 85.3847 21.6095 83.9283 22.9566C82.5083 24.2674 81.7983 26.3245 81.7983 29.128V43H73.2785ZM106.119 43L93.7759 13.6176H102.569L112.836 38.9039H108.467L119.117 13.6176H127.309L114.912 43H106.119ZM131.332 43V13.6176H139.851V43H131.332ZM135.592 9.52153C134.026 9.52153 132.752 9.06642 131.769 8.15618C130.786 7.24594 130.294 6.11725 130.294 4.7701C130.294 3.42295 130.786 2.29426 131.769 1.38403C132.752 0.47379 134.026 0.0186719 135.592 0.0186719C137.157 0.0186719 138.432 0.455586 139.415 1.32941C140.398 2.16683 140.889 3.25911 140.889 4.60626C140.889 6.02623 140.398 7.20953 139.415 8.15618C138.468 9.06642 137.194 9.52153 135.592 9.52153ZM162.504 43.4369C159.337 43.4369 156.515 42.7997 154.039 41.5254C151.563 40.2147 149.615 38.4124 148.195 36.1186C146.812 33.8248 146.12 31.2216 146.12 28.3088C146.12 25.3596 146.812 22.7564 148.195 20.499C149.615 18.2052 151.563 16.4211 154.039 15.1468C156.515 13.8361 159.337 13.1807 162.504 13.1807C165.599 13.1807 168.293 13.8361 170.587 15.1468C172.881 16.4211 174.574 18.2598 175.666 20.6628L169.058 24.2127C168.293 22.8292 167.329 21.8097 166.164 21.1543C165.035 20.499 163.797 20.1713 162.45 20.1713C160.993 20.1713 159.683 20.499 158.518 21.1543C157.352 21.8097 156.424 22.7382 155.732 23.9397C155.077 25.1412 154.749 26.5976 154.749 28.3088C154.749 30.02 155.077 31.4764 155.732 32.6779C156.424 33.8794 157.352 34.8079 158.518 35.4632C159.683 36.1186 160.993 36.4463 162.45 36.4463C163.797 36.4463 165.035 36.1368 166.164 35.5179C167.329 34.8625 168.293 33.8248 169.058 32.4049L175.666 36.0094C174.574 38.376 172.881 40.2147 170.587 41.5254C168.293 42.7997 165.599 43.4369 162.504 43.4369ZM195.327 43.4369C191.977 43.4369 189.028 42.7815 186.479 41.4708C183.967 40.1601 182.019 38.376 180.635 36.1186C179.252 33.8248 178.56 31.2216 178.56 28.3088C178.56 25.3596 179.234 22.7564 180.581 20.499C181.964 18.2052 183.839 16.4211 186.206 15.1468C188.573 13.8361 191.249 13.1807 194.234 13.1807C197.111 13.1807 199.696 13.7996 201.99 15.0376C204.32 16.2391 206.158 17.9867 207.506 20.2805C208.853 22.5379 209.526 25.2504 209.526 28.418C209.526 28.7457 209.508 29.128 209.472 29.5649C209.435 29.9654 209.399 30.3477 209.362 30.7118H185.496V25.7419H204.884L201.607 27.2165C201.607 25.6873 201.298 24.3584 200.679 23.2297C200.06 22.101 199.204 21.2272 198.112 20.6082C197.02 19.9528 195.745 19.6251 194.289 19.6251C192.833 19.6251 191.54 19.9528 190.411 20.6082C189.319 21.2272 188.463 22.1192 187.844 23.2843C187.226 24.413 186.916 25.7601 186.916 27.3257V28.6365C186.916 30.2385 187.262 31.6585 187.954 32.8964C188.682 34.0979 189.683 35.0263 190.958 35.6817C192.268 36.3007 193.797 36.6101 195.545 36.6101C197.111 36.6101 198.476 36.3735 199.641 35.9002C200.843 35.4268 201.935 34.7169 202.918 33.7702L207.451 38.6855C206.104 40.2147 204.411 41.398 202.372 42.2354C200.333 43.0364 197.985 43.4369 195.327 43.4369ZM3.506 110V71.7701H12.3535V110H3.506ZM59.0008 80.1807C61.331 80.1807 63.3881 80.654 65.1722 81.6006C66.9927 82.5109 68.4126 83.9309 69.4321 85.8606C70.488 87.7538 71.0159 90.1933 71.0159 93.1788V110H62.4961V94.4896C62.4961 92.123 62.0046 90.3753 61.0215 89.2466C60.0385 88.1179 58.6549 87.5536 56.8708 87.5536C55.6329 87.5536 54.5224 87.8449 53.5394 88.4274C52.5563 88.9736 51.7917 89.811 51.2456 90.9397C50.6994 92.0684 50.4264 93.5065 50.4264 95.2542V110H41.9066V94.4896C41.9066 92.123 41.415 90.3753 40.432 89.2466C39.4853 88.1179 38.12 87.5536 36.3359 87.5536C35.098 87.5536 33.9875 87.8449 33.0045 88.4274C32.0214 88.9736 31.2568 89.811 30.7107 90.9397C30.1645 92.0684 29.8915 93.5065 29.8915 95.2542V110H21.3716V80.6176H29.5092V88.6459L27.98 86.2975C28.9994 84.2949 30.4376 82.784 32.2945 81.7645C34.1878 80.7086 36.3359 80.1807 38.7389 80.1807C41.4332 80.1807 43.7816 80.8725 45.7842 82.256C47.8231 83.6032 49.1702 85.6785 49.8256 88.482L46.8218 87.6628C47.8049 85.369 49.3705 83.5486 51.5186 82.2014C53.7032 80.8543 56.1973 80.1807 59.0008 80.1807ZM96.5659 110.437C94.0901 110.437 91.9237 109.891 90.0668 108.798C88.21 107.706 86.7536 106.05 85.6977 103.829C84.6782 101.571 84.1685 98.7313 84.1685 95.3088C84.1685 91.8499 84.66 89.01 85.6431 86.789C86.6262 84.568 88.0461 82.9114 89.903 81.8191C91.7599 80.7268 93.9809 80.1807 96.5659 80.1807C99.333 80.1807 101.809 80.8178 103.993 82.0922C106.214 83.3301 107.962 85.0777 109.236 87.3351C110.547 89.5925 111.203 92.2504 111.203 95.3088C111.203 98.4036 110.547 101.08 109.236 103.337C107.962 105.594 106.214 107.342 103.993 108.58C101.809 109.818 99.333 110.437 96.5659 110.437ZM79.1986 120.595V80.6176H87.3361V86.6251L87.1723 95.3634L87.7184 104.047V120.595H79.1986ZM95.0913 103.446C96.5113 103.446 97.7674 103.119 98.8597 102.463C99.9884 101.808 100.88 100.879 101.536 99.6779C102.228 98.44 102.573 96.9836 102.573 95.3088C102.573 93.5976 102.228 92.1412 101.536 90.9397C100.88 89.7382 99.9884 88.8097 98.8597 88.1543C97.7674 87.499 96.5113 87.1713 95.0913 87.1713C93.6714 87.1713 92.397 87.499 91.2684 88.1543C90.1397 88.8097 89.2476 89.7382 88.5923 90.9397C87.9369 92.1412 87.6092 93.5976 87.6092 95.3088C87.6092 96.9836 87.9369 98.44 88.5923 99.6779C89.2476 100.879 90.1397 101.808 91.2684 102.463C92.397 103.119 93.6714 103.446 95.0913 103.446ZM117.452 110V80.6176H125.59V88.9189L124.443 86.5159C125.316 84.4406 126.718 82.875 128.648 81.8191C130.578 80.7268 132.926 80.1807 135.693 80.1807V88.0451C135.329 88.0087 135.001 87.9905 134.71 87.9905C134.419 87.9541 134.109 87.9359 133.782 87.9359C131.451 87.9359 129.558 88.6095 128.102 89.9566C126.682 91.2674 125.972 93.3245 125.972 96.128V110H117.452ZM155.073 110.437C151.942 110.437 149.156 109.782 146.717 108.471C144.314 107.16 142.403 105.376 140.983 103.119C139.599 100.825 138.907 98.2216 138.907 95.3088C138.907 92.3596 139.599 89.7564 140.983 87.499C142.403 85.2052 144.314 83.4211 146.717 82.1468C149.156 80.8361 151.942 80.1807 155.073 80.1807C158.168 80.1807 160.935 80.8361 163.374 82.1468C165.814 83.4211 167.725 85.187 169.109 87.4444C170.492 89.7017 171.184 92.3232 171.184 95.3088C171.184 98.2216 170.492 100.825 169.109 103.119C167.725 105.376 165.814 107.16 163.374 108.471C160.935 109.782 158.168 110.437 155.073 110.437ZM155.073 103.446C156.493 103.446 157.767 103.119 158.896 102.463C160.025 101.808 160.917 100.879 161.572 99.6779C162.227 98.44 162.555 96.9836 162.555 95.3088C162.555 93.5976 162.227 92.1412 161.572 90.9397C160.917 89.7382 160.025 88.8097 158.896 88.1543C157.767 87.499 156.493 87.1713 155.073 87.1713C153.653 87.1713 152.379 87.499 151.25 88.1543C150.121 88.8097 149.211 89.7382 148.519 90.9397C147.864 92.1412 147.536 93.5976 147.536 95.3088C147.536 96.9836 147.864 98.44 148.519 99.6779C149.211 100.879 150.121 101.808 151.25 102.463C152.379 103.119 153.653 103.446 155.073 103.446ZM184.599 110L172.256 80.6176H181.049L191.316 105.904H186.947L197.597 80.6176H205.789L193.392 110H184.599ZM223.594 110.437C220.244 110.437 217.295 109.782 214.746 108.471C212.234 107.16 210.286 105.376 208.903 103.119C207.519 100.825 206.827 98.2216 206.827 95.3088C206.827 92.3596 207.501 89.7564 208.848 87.499C210.231 85.2052 212.107 83.4211 214.473 82.1468C216.84 80.8361 219.516 80.1807 222.501 80.1807C225.378 80.1807 227.963 80.7996 230.257 82.0376C232.587 83.2391 234.426 84.9867 235.773 87.2805C237.12 89.5379 237.793 92.2504 237.793 95.418C237.793 95.7457 237.775 96.128 237.739 96.5649C237.702 96.9654 237.666 97.3477 237.63 97.7118H213.763V92.7419H233.151L229.874 94.2165C229.874 92.6873 229.565 91.3584 228.946 90.2297C228.327 89.101 227.471 88.2272 226.379 87.6082C225.287 86.9528 224.012 86.6251 222.556 86.6251C221.1 86.6251 219.807 86.9528 218.678 87.6082C217.586 88.2272 216.731 89.1192 216.112 90.2843C215.493 91.413 215.183 92.7601 215.183 94.3257V95.6365C215.183 97.2385 215.529 98.6585 216.221 99.8964C216.949 101.098 217.95 102.026 219.225 102.682C220.535 103.301 222.065 103.61 223.812 103.61C225.378 103.61 226.743 103.373 227.908 102.9C229.11 102.427 230.202 101.717 231.185 100.77L235.718 105.685C234.371 107.215 232.678 108.398 230.639 109.235C228.6 110.036 226.252 110.437 223.594 110.437ZM281.641 80.1807C283.971 80.1807 286.028 80.654 287.812 81.6006C289.633 82.5109 291.053 83.9309 292.072 85.8606C293.128 87.7538 293.656 90.1933 293.656 93.1788V110H285.136V94.4896C285.136 92.123 284.645 90.3753 283.662 89.2466C282.679 88.1179 281.295 87.5536 279.511 87.5536C278.273 87.5536 277.162 87.8449 276.179 88.4274C275.196 88.9736 274.432 89.811 273.886 90.9397C273.34 92.0684 273.066 93.5065 273.066 95.2542V110H264.547V94.4896C264.547 92.123 264.055 90.3753 263.072 89.2466C262.125 88.1179 260.76 87.5536 258.976 87.5536C257.738 87.5536 256.628 87.8449 255.645 88.4274C254.661 88.9736 253.897 89.811 253.351 90.9397C252.805 92.0684 252.532 93.5065 252.532 95.2542V110H244.012V80.6176H252.149V88.6459L250.62 86.2975C251.639 84.2949 253.078 82.784 254.935 81.7645C256.828 80.7086 258.976 80.1807 261.379 80.1807C264.073 80.1807 266.422 80.8725 268.424 82.256C270.463 83.6032 271.81 85.6785 272.466 88.482L269.462 87.6628C270.445 85.369 272.011 83.5486 274.159 82.2014C276.343 80.8543 278.837 80.1807 281.641 80.1807ZM316.634 110.437C313.284 110.437 310.335 109.782 307.787 108.471C305.274 107.16 303.326 105.376 301.943 103.119C300.559 100.825 299.867 98.2216 299.867 95.3088C299.867 92.3596 300.541 89.7564 301.888 87.499C303.272 85.2052 305.147 83.4211 307.513 82.1468C309.88 80.8361 312.556 80.1807 315.542 80.1807C318.418 80.1807 321.003 80.7996 323.297 82.0376C325.627 83.2391 327.466 84.9867 328.813 87.2805C330.16 89.5379 330.834 92.2504 330.834 95.418C330.834 95.7457 330.815 96.128 330.779 96.5649C330.743 96.9654 330.706 97.3477 330.67 97.7118H306.803V92.7419H326.191L322.915 94.2165C322.915 92.6873 322.605 91.3584 321.986 90.2297C321.367 89.101 320.512 88.2272 319.419 87.6082C318.327 86.9528 317.053 86.6251 315.596 86.6251C314.14 86.6251 312.847 86.9528 311.719 87.6082C310.626 88.2272 309.771 89.1192 309.152 90.2843C308.533 91.413 308.223 92.7601 308.223 94.3257V95.6365C308.223 97.2385 308.569 98.6585 309.261 99.8964C309.989 101.098 310.991 102.026 312.265 102.682C313.576 103.301 315.105 103.61 316.852 103.61C318.418 103.61 319.783 103.373 320.949 102.9C322.15 102.427 323.242 101.717 324.225 100.77L328.758 105.685C327.411 107.215 325.718 108.398 323.679 109.235C321.64 110.036 319.292 110.437 316.634 110.437ZM354.911 80.1807C357.241 80.1807 359.316 80.654 361.137 81.6006C362.994 82.5109 364.45 83.9309 365.506 85.8606C366.562 87.7538 367.09 90.1933 367.09 93.1788V110H358.57V94.4896C358.57 92.123 358.042 90.3753 356.986 89.2466C355.967 88.1179 354.51 87.5536 352.617 87.5536C351.27 87.5536 350.05 87.8449 348.958 88.4274C347.902 88.9736 347.065 89.8292 346.446 90.9943C345.863 92.1594 345.572 93.6522 345.572 95.4726V110H337.052V80.6176H345.19V88.7551L343.66 86.2975C344.716 84.3314 346.227 82.8204 348.193 81.7645C350.159 80.7086 352.399 80.1807 354.911 80.1807ZM387.374 110.437C383.915 110.437 381.221 109.563 379.291 107.815C377.361 106.031 376.396 103.392 376.396 99.8964V74.1185H384.916V99.7872C384.916 101.025 385.244 101.99 385.899 102.682C386.555 103.337 387.447 103.665 388.575 103.665C389.922 103.665 391.069 103.301 392.016 102.572L394.31 108.58C393.436 109.199 392.38 109.672 391.142 110C389.941 110.291 388.685 110.437 387.374 110.437ZM371.863 87.8267V81.273H392.234V87.8267H371.863Z" fill="white"/>
<path d="M7.27437 42.4539L6.79008 44.0752L6.79978 44.0781L6.80951 44.0809L7.27437 42.4539ZM0.502218 39.2316L-1.04038 38.5362L-1.59174 39.7592L-0.526716 40.575L0.502218 39.2316ZM3.506 32.5687L4.48662 31.1897L2.80928 29.9969L1.9634 31.8733L3.506 32.5687ZM9.29509 35.4632L8.74429 37.0632L8.7599 37.0686L8.77561 37.0736L9.29509 35.4632ZM20.3272 36.064L20.8287 37.6801L20.8455 37.6749L20.8622 37.6693L20.3272 36.064ZM22.7302 34.5894L21.424 33.5137L21.424 33.5137L22.7302 34.5894ZM22.2933 30.0564L21.2586 31.3954L21.2781 31.4104L21.298 31.4249L22.2933 30.0564ZM19.1256 28.5819L18.6312 30.2001L18.6519 30.2065L18.6728 30.2122L19.1256 28.5819ZM14.7565 27.4896L14.3732 29.1377L14.3953 29.1428L14.4174 29.1474L14.7565 27.4896ZM10.0051 26.1788L9.48121 27.7879L9.49202 27.7913L10.0051 26.1788ZM5.69056 24.2127L4.80821 25.6566L4.80821 25.6566L5.69056 24.2127ZM2.46833 21.0451L1.02448 21.9275L1.03329 21.9419L1.04239 21.9561L2.46833 21.0451ZM3.01447 10.0677L1.6022 9.13558L1.59771 9.14245L3.01447 10.0677ZM8.36665 5.75316L9.05611 7.29848L9.06685 7.2936L8.36665 5.75316ZM24.4778 4.98856L24.0674 6.63015L24.0795 6.63318L24.0917 6.63603L24.4778 4.98856ZM30.6492 7.50081L32.2168 8.13802L32.7496 6.8273L31.5539 6.07084L30.6492 7.50081ZM27.9185 14.2183L27.079 15.6875L28.7579 16.6469L29.4861 14.8556L27.9185 14.2183ZM22.5663 11.9792L22.1015 13.6062L22.1169 13.6106L22.1324 13.6147L22.5663 11.9792ZM13.1181 11.8153L12.5356 10.2266L12.5356 10.2266L13.1181 11.8153ZM10.7697 13.3991L12.1138 14.427L12.1279 14.4086L12.1414 14.3899L10.7697 13.3991ZM11.2612 17.9867L10.2266 19.3257L10.246 19.3407L10.266 19.3552L11.2612 17.9867ZM14.4288 19.4067L13.9759 21.0371L13.9759 21.0371L14.4288 19.4067ZM18.7433 20.499L18.3601 22.1471L18.3683 22.149L18.7433 20.499ZM23.4948 21.7551L23.0051 23.3748L23.0153 23.3779L23.4948 21.7551ZM27.8639 23.6666L28.7463 22.2227L28.7463 22.2227L27.8639 23.6666ZM31.0315 26.8342L29.5877 27.7166L29.5965 27.731L29.6056 27.7452L31.0315 26.8342ZM30.4854 37.7024L31.8889 38.6476L31.8889 38.6476L30.4854 37.7024ZM25.0786 42.0169L24.3784 40.4765L24.3695 40.4806L25.0786 42.0169ZM16.0672 41.9633C13.1584 41.9633 10.3843 41.5826 7.73923 40.8269L6.80951 44.0809C9.77145 44.9271 12.8593 45.3475 16.0672 45.3475V41.9633ZM7.75866 40.8325C5.08623 40.0343 3.03238 39.0382 1.53115 37.8883L-0.526716 40.575C1.39454 42.0466 3.85546 43.1986 6.79008 44.0752L7.75866 40.8325ZM2.04482 39.9271L5.0486 33.2641L1.9634 31.8733L-1.04038 38.5362L2.04482 39.9271ZM2.52538 33.9477C4.31576 35.2209 6.39529 36.2545 8.74429 37.0632L9.8459 33.8633C7.75295 33.1428 5.97308 32.2467 4.48662 31.1897L2.52538 33.9477ZM8.77561 37.0736C11.1951 37.8541 13.6457 38.2476 16.1219 38.2476V34.8634C14.0104 34.8634 11.9099 34.5288 9.81458 33.8529L8.77561 37.0736ZM16.1219 38.2476C17.953 38.2476 19.5445 38.0786 20.8287 37.6801L19.8256 34.4479C18.9981 34.7047 17.786 34.8634 16.1219 34.8634V38.2476ZM20.8622 37.6693C22.1315 37.2462 23.2546 36.6144 24.0364 35.6651L21.424 33.5137C21.1863 33.8024 20.7074 34.1536 19.7921 34.4587L20.8622 37.6693ZM24.0364 35.6651C24.7953 34.7435 25.1869 33.6534 25.1869 32.4595H21.8027C21.8027 32.8676 21.6845 33.1974 21.424 33.5137L24.0364 35.6651ZM25.1869 32.4595C25.1869 30.9174 24.5423 29.5998 23.2885 28.688L21.298 31.4249C21.6462 31.6782 21.8027 31.9626 21.8027 32.4595H25.1869ZM23.3279 28.7175C22.3052 27.9273 21.0319 27.3552 19.5785 26.9515L18.6728 30.2122C19.8409 30.5367 20.6793 30.9477 21.2586 31.3954L23.3279 28.7175ZM19.6201 26.9636C18.2496 26.5449 16.7404 26.1682 15.0956 25.8318L14.4174 29.1474C15.9767 29.4663 17.3802 29.8179 18.6312 30.2001L19.6201 26.9636ZM15.1398 25.8415C13.6198 25.488 12.0793 25.0631 10.5181 24.5664L9.49202 27.7913C11.1349 28.314 12.762 28.763 14.3732 29.1377L15.1398 25.8415ZM10.5289 24.5699C9.07991 24.0981 7.76325 23.4963 6.57291 22.7689L4.80821 25.6566C6.23936 26.5312 7.79904 27.2401 9.48122 27.7878L10.5289 24.5699ZM6.57291 22.7689C5.48432 22.1036 4.59511 21.2311 3.89426 20.1341L1.04239 21.9561C2.01638 23.4806 3.27532 24.7198 4.80821 25.6566L6.57291 22.7689ZM3.91218 20.1628C3.31845 19.1912 2.95893 17.8474 2.95893 16.0206H-0.425295C-0.425295 18.2717 0.016186 20.2775 1.02448 21.9275L3.91218 20.1628ZM2.95893 16.0206C2.95893 14.1559 3.45054 12.4946 4.43122 10.9929L1.59771 9.14245C0.248193 11.2089 -0.425295 13.5162 -0.425295 16.0206H2.95893ZM4.42672 10.9998C5.41957 9.49544 6.92779 8.24799 9.05609 7.29845L7.67722 4.20787C5.07229 5.37007 3.01239 6.99896 1.60222 9.13559L4.42672 10.9998ZM9.06685 7.2936C11.1851 6.33076 13.9318 5.80685 17.378 5.80685V2.42262C13.6151 2.42262 10.3542 2.99099 7.66645 4.21272L9.06685 7.2936ZM17.378 5.80685C19.6427 5.80685 21.8715 6.08117 24.0674 6.63015L24.8882 3.34697C22.4237 2.73085 19.9193 2.42262 17.378 2.42262V5.80685ZM24.0917 6.63603C26.2624 7.14478 28.1398 7.91551 29.7445 8.93078L31.5539 6.07084C29.5906 4.82873 27.3537 3.92462 24.8639 3.34109L24.0917 6.63603ZM29.0817 6.8636L26.351 13.5811L29.4861 14.8556L32.2168 8.13802L29.0817 6.8636ZM28.758 12.7492C26.8608 11.665 24.9411 10.8586 23.0002 10.3436L22.1324 13.6147C23.7596 14.0464 25.4081 14.7327 27.079 15.6875L28.758 12.7492ZM23.0312 10.3522C21.1086 9.80285 19.2045 9.52246 17.3234 9.52246V12.9067C18.8648 12.9067 20.4559 13.136 22.1015 13.6062L23.0312 10.3522ZM17.3234 9.52246C15.4983 9.52246 13.8803 9.73359 12.5356 10.2266L13.7006 13.404C14.5405 13.0961 15.726 12.9067 17.3234 12.9067V9.52246ZM12.5356 10.2266C11.2593 10.6946 10.138 11.3838 9.39792 12.4084L12.1414 14.3899C12.348 14.1038 12.7923 13.737 13.7006 13.404L12.5356 10.2266ZM9.42553 12.3713C8.7092 13.308 8.36758 14.4043 8.36758 15.5837H11.7518C11.7518 15.0883 11.8835 14.7282 12.1138 14.427L9.42553 12.3713ZM8.36758 15.5837C8.36758 17.1087 9.0253 18.3974 10.2266 19.3257L12.2958 16.6478C11.8951 16.3381 11.7518 16.0248 11.7518 15.5837H8.36758ZM10.266 19.3552C11.2792 20.0921 12.538 20.6376 13.9759 21.0371L14.8817 17.7763C13.6982 17.4476 12.8452 17.0464 12.2565 16.6183L10.266 19.3552ZM13.9759 21.0371C15.3134 21.4086 16.7752 21.7785 18.3601 22.1471L19.1266 18.8508C17.5803 18.4912 16.1657 18.133 14.8817 17.7763L13.9759 21.0371ZM18.3683 22.149C19.932 22.5044 21.4775 22.913 23.0051 23.3748L23.9844 20.1354C22.3808 19.6506 20.7588 19.2218 19.1183 18.8489L18.3683 22.149ZM23.0153 23.3779C24.4881 23.813 25.8072 24.3928 26.9816 25.1104L28.7463 22.2227C27.2991 21.3384 25.7055 20.6438 23.9742 20.1323L23.0153 23.3779ZM26.9816 25.1104C28.0632 25.7715 28.9266 26.6349 29.5877 27.7166L32.4754 25.9519C31.5344 24.4121 30.286 23.1637 28.7463 22.2227L26.9816 25.1104ZM29.6056 27.7452C30.2257 28.7158 30.5955 30.0328 30.5955 31.8041H33.9798C33.9798 29.5704 33.5122 27.5741 32.4575 25.9232L29.6056 27.7452ZM30.5955 31.8041C30.5955 33.615 30.0955 35.2521 29.0819 36.7572L31.8889 38.6476C33.2783 36.5846 33.9798 34.2895 33.9798 31.8041H30.5955ZM29.0819 36.7572C28.0911 38.2284 26.5611 39.4843 24.3784 40.4765L25.7788 43.5574C28.4021 42.365 30.4766 40.7446 31.8889 38.6476L29.0819 36.7572ZM24.3695 40.4806C22.2951 41.438 19.5542 41.9633 16.0672 41.9633V45.3475C19.8621 45.3475 23.1288 44.7805 25.7877 43.5533L24.3695 40.4806ZM44.013 41.4708L43.2303 42.971L43.2392 42.9756L44.013 41.4708ZM38.1693 36.1186L36.7204 36.9926L36.7266 37.0029L38.1693 36.1186ZM38.1147 20.499L36.6658 19.625L36.6617 19.6318L38.1147 20.499ZM43.74 15.1468L44.5422 16.6366L44.551 16.6319L44.5598 16.627L43.74 15.1468ZM59.5235 15.0376L58.7198 16.5267L58.7338 16.5342L58.748 16.5415L59.5235 15.0376ZM65.0395 20.2805L63.5804 21.1375L63.5865 21.1477L65.0395 20.2805ZM67.0056 29.5649L68.6908 29.7181L68.6919 29.7054L67.0056 29.5649ZM66.8964 30.7118V32.4039H68.4277L68.5801 30.8802L66.8964 30.7118ZM43.03 30.7118H41.3379V32.4039H43.03V30.7118ZM43.03 25.7419V24.0498H41.3379V25.7419H43.03ZM62.418 25.7419L63.1124 27.285L62.418 24.0498V25.7419ZM59.1412 27.2165H57.4491V29.8335L59.8355 28.7596L59.1412 27.2165ZM58.2127 23.2297L56.7291 24.0433L56.7291 24.0433L58.2127 23.2297ZM55.6459 20.6082L54.7753 22.0592L54.7933 22.07L54.8116 22.0804L55.6459 20.6082ZM47.9453 20.6082L48.7795 22.0804L48.7872 22.076L48.7949 22.0715L47.9453 20.6082ZM45.3784 23.2843L46.8621 24.0979L46.8675 24.0881L46.8727 24.0782L45.3784 23.2843ZM45.4876 32.8964L44.0105 33.7218L44.0251 33.7479L44.0405 33.7734L45.4876 32.8964ZM48.4914 35.6817L47.7175 37.1865L47.743 37.1996L47.7689 37.2118L48.4914 35.6817ZM57.1751 35.9002L56.5549 34.3258L56.5465 34.3291L56.5382 34.3325L57.1751 35.9002ZM60.4519 33.7702L61.6958 32.6231L60.5236 31.352L59.2782 32.5513L60.4519 33.7702ZM64.9849 38.6855L66.2546 39.804L67.2628 38.6596L66.2288 37.5383L64.9849 38.6855ZM59.9058 42.2354L60.5245 43.8103L60.5366 43.8056L60.5486 43.8006L59.9058 42.2354ZM52.8605 41.7448C49.7346 41.7448 47.0588 41.1344 44.7869 39.966L43.2392 42.9756C46.0646 44.4286 49.2871 45.129 52.8605 45.129V41.7448ZM44.7958 39.9706C42.5354 38.7913 40.8241 37.212 39.612 35.2344L36.7266 37.0029C38.2816 39.54 40.4662 41.5288 43.2303 42.971L44.7958 39.9706ZM39.6183 35.2447C38.4076 33.2375 37.7861 30.9414 37.7861 28.3088H34.4019C34.4019 31.5017 35.164 34.4122 36.7204 36.9926L39.6183 35.2447ZM37.7861 28.3088C37.7861 25.6268 38.3955 23.3304 39.5678 21.3661L36.6617 19.6318C35.1396 22.1823 34.4019 25.0924 34.4019 28.3088H37.7861ZM39.5637 21.3729C40.7901 19.3396 42.4415 17.7678 44.5422 16.6366L42.9377 13.6569C40.3053 15.0744 38.2064 17.0708 36.6658 19.625L39.5637 21.3729ZM44.5598 16.627C46.6502 15.4693 49.0391 14.8728 51.7683 14.8728V11.4886C48.5262 11.4886 45.563 12.2028 42.9201 13.6665L44.5598 16.627ZM51.7683 14.8728C54.3937 14.8728 56.6978 15.4354 58.7198 16.5267L60.3271 13.5485C57.7616 12.1639 54.8955 11.4886 51.7683 11.4886V14.8728ZM58.748 16.5415C60.7893 17.5941 62.3928 19.1154 63.5804 21.1374L66.4986 19.4236C64.9918 16.8581 62.918 14.8841 60.2989 13.5336L58.748 16.5415ZM63.5865 21.1477C64.7478 23.0938 65.3681 25.493 65.3681 28.418H68.7523C68.7523 25.0078 68.0254 21.982 66.4925 19.4134L63.5865 21.1477ZM65.3681 28.418C65.3681 28.6862 65.3531 29.0197 65.3193 29.4244L68.6919 29.7054C68.731 29.2363 68.7523 28.8052 68.7523 28.418H65.3681ZM65.3204 29.4117C65.2844 29.8077 65.2485 30.1849 65.2127 30.5434L68.5801 30.8802C68.617 30.5106 68.6539 30.1232 68.6908 29.7181L65.3204 29.4117ZM66.8964 29.0197H43.03V32.4039H66.8964V29.0197ZM44.7221 30.7118V25.7419H41.3379V30.7118H44.7221ZM43.03 27.434H62.418V24.0498H43.03V27.434ZM61.7236 24.1989L58.4468 25.6734L59.8355 28.7596L63.1124 27.285L61.7236 24.1989ZM60.8333 27.2165C60.8333 25.4563 60.4757 23.8371 59.6964 22.4161L56.7291 24.0433C57.1877 24.8796 57.4491 25.9183 57.4491 27.2165H60.8333ZM59.6964 22.4161C58.9303 21.0192 57.853 19.914 56.4801 19.136L54.8116 22.0804C55.6233 22.5403 56.2572 23.1828 56.7291 24.0433L59.6964 22.4161ZM56.5164 19.1572C55.1252 18.3225 53.5411 17.933 51.8229 17.933V21.3173C53.0174 21.3173 53.9819 21.5832 54.7753 22.0592L56.5164 19.1572ZM51.8229 17.933C50.1034 17.933 48.5114 18.3228 47.0956 19.1449L48.7949 22.0715C49.6366 21.5828 50.6295 21.3173 51.8229 21.3173V17.933ZM47.111 19.136C45.7241 19.922 44.646 21.0562 43.8841 22.4904L46.8727 24.0782C47.3487 23.1822 47.9819 22.5324 48.7795 22.0804L47.111 19.136ZM43.8947 22.4707C43.1124 23.8973 42.7578 25.5368 42.7578 27.3257H46.1421C46.1421 25.9835 46.4065 24.9287 46.8621 24.0979L43.8947 22.4707ZM42.7578 27.3257V28.6365H46.1421V27.3257H42.7578ZM42.7578 28.6365C42.7578 30.4894 43.1603 32.2003 44.0105 33.7218L46.9647 32.0709C46.4314 31.1166 46.1421 29.9876 46.1421 28.6365H42.7578ZM44.0405 33.7734C44.9342 35.2479 46.1709 36.3911 47.7175 37.1865L49.2653 34.1769C48.2632 33.6616 47.4974 32.9479 46.9347 32.0194L44.0405 33.7734ZM47.7689 37.2118C49.3472 37.9571 51.1321 38.3023 53.079 38.3023V34.918C51.5306 34.918 50.2571 34.6442 49.2139 34.1516L47.7689 37.2118ZM53.079 38.3023C54.8113 38.3023 56.4016 38.0408 57.8119 37.4678L56.5382 34.3325C55.6183 34.7062 54.4779 34.918 53.079 34.918V38.3023ZM57.7953 37.4745C59.2143 36.9155 60.4923 36.0804 61.6256 34.9891L59.2782 32.5513C58.4454 33.3533 57.5388 33.9382 56.5549 34.3258L57.7953 37.4745ZM59.208 34.9174L63.741 39.8326L66.2288 37.5383L61.6958 32.6231L59.208 34.9174ZM63.7152 37.5669C62.5536 38.8855 61.0813 39.9233 59.2629 40.6702L60.5486 43.8006C62.808 42.8727 64.7218 41.5439 66.2546 39.804L63.7152 37.5669ZM59.287 40.6605C57.4823 41.3695 55.3506 41.7448 52.8605 41.7448V45.129C55.6863 45.129 58.2513 44.7034 60.5245 43.8103L59.287 40.6605ZM73.2785 43H71.5864V44.6921H73.2785V43ZM73.2785 13.6176V11.9255H71.5864V13.6176H73.2785ZM81.416 13.6176H83.1082V11.9255H81.416V13.6176ZM81.416 21.9189L79.8889 22.6478L83.1082 21.9189H81.416ZM80.2691 19.5159L78.7096 18.8593L78.4149 19.5593L78.742 20.2448L80.2691 19.5159ZM84.4744 14.8191L85.2867 16.3035L85.2974 16.2977L85.308 16.2917L84.4744 14.8191ZM91.5197 13.1807H93.2118V11.4886H91.5197V13.1807ZM91.5197 21.0451L91.3513 22.7288L93.2118 22.9149V21.0451H91.5197ZM90.5366 20.9905L90.3267 22.6695L90.4313 22.6826H90.5366V20.9905ZM83.9283 22.9566L85.076 24.2L85.0773 24.1988L83.9283 22.9566ZM81.7983 43V44.6921H83.4905V43H81.7983ZM74.9707 43V13.6176H71.5864V43H74.9707ZM73.2785 15.3097H81.416V11.9255H73.2785V15.3097ZM79.7239 13.6176V21.9189H83.1082V13.6176H79.7239ZM82.9431 21.1901L81.7962 18.7871L78.742 20.2448L79.8889 22.6478L82.9431 21.1901ZM81.8287 20.1726C82.5579 18.4406 83.701 17.1712 85.2867 16.3035L83.6622 13.3347C81.3885 14.5788 79.7281 16.4406 78.7096 18.8593L81.8287 20.1726ZM85.308 16.2917C86.9277 15.3748 88.9732 14.8728 91.5197 14.8728V11.4886C88.5319 11.4886 85.8805 12.0788 83.6409 13.3465L85.308 16.2917ZM89.8275 13.1807V21.0451H93.2118V13.1807H89.8275ZM91.688 19.3614C91.2814 19.3207 90.8962 19.2984 90.5366 19.2984V22.6826C90.7596 22.6826 91.0297 22.6967 91.3513 22.7288L91.688 19.3614ZM90.7465 19.3115C90.3781 19.2654 89.9981 19.2438 89.6082 19.2438V22.628C89.8736 22.628 90.1125 22.6428 90.3267 22.6695L90.7465 19.3115ZM89.6082 19.2438C86.9312 19.2438 84.602 20.0284 82.7793 21.7144L85.0773 24.1988C86.1673 23.1905 87.6248 22.628 89.6082 22.628V19.2438ZM82.7806 21.7132C80.8816 23.4661 80.1062 26.0681 80.1062 29.128H83.4905C83.4905 26.5809 84.135 25.0686 85.076 24.2L82.7806 21.7132ZM80.1062 29.128V43H83.4905V29.128H80.1062ZM81.7983 41.3079H73.2785V44.6921H81.7983V41.3079ZM106.119 43L104.559 43.6553L104.994 44.6921H106.119V43ZM93.7759 13.6176V11.9255H91.2297L92.2159 14.2729L93.7759 13.6176ZM102.569 13.6176L104.137 12.981L103.708 11.9255H102.569V13.6176ZM112.836 38.9039V40.5961H115.35L114.404 38.2673L112.836 38.9039ZM108.467 38.9039L106.908 38.2472L105.918 40.5961H108.467V38.9039ZM119.117 13.6176V11.9255H117.993L117.557 12.9608L119.117 13.6176ZM127.309 13.6176L128.868 14.2754L129.86 11.9255H127.309V13.6176ZM114.912 43V44.6921H116.034L116.471 43.6578L114.912 43ZM107.679 42.3447L95.336 12.9623L92.2159 14.2729L104.559 43.6553L107.679 42.3447ZM93.7759 15.3097H102.569V11.9255H93.7759V15.3097ZM101.001 14.2542L111.268 39.5405L114.404 38.2673L104.137 12.981L101.001 14.2542ZM112.836 37.2118H108.467V40.5961H112.836V37.2118ZM110.027 39.5607L120.676 14.2744L117.557 12.9608L106.908 38.2472L110.027 39.5607ZM119.117 15.3097H127.309V11.9255H119.117V15.3097ZM125.75 12.9598L113.353 42.3422L116.471 43.6578L128.868 14.2754L125.75 12.9598ZM114.912 41.3079H106.119V44.6921H114.912V41.3079ZM131.332 43H129.64V44.6921H131.332V43ZM131.332 13.6176V11.9255H129.64V13.6176H131.332ZM139.851 13.6176H141.544V11.9255H139.851V13.6176ZM139.851 43V44.6921H141.544V43H139.851ZM131.769 8.15618L130.619 9.39779L130.619 9.39779L131.769 8.15618ZM131.769 1.38403L132.918 2.62563L132.918 2.62563L131.769 1.38403ZM139.415 1.32941L138.29 2.59411L138.304 2.60596L138.317 2.61752L139.415 1.32941ZM139.415 8.15618L140.587 9.37591L140.588 9.37504L139.415 8.15618ZM133.024 43V13.6176H129.64V43H133.024ZM131.332 15.3097H139.851V11.9255H131.332V15.3097ZM138.159 13.6176V43H141.544V13.6176H138.159ZM139.851 41.3079H131.332V44.6921H139.851V41.3079ZM135.592 7.82942C134.376 7.82942 133.536 7.48701 132.918 6.91458L130.619 9.39779C131.967 10.6458 133.676 11.2136 135.592 11.2136V7.82942ZM132.918 6.91458C132.283 6.3266 131.986 5.64886 131.986 4.7701H128.602C128.602 6.58564 129.288 8.16529 130.619 9.39779L132.918 6.91458ZM131.986 4.7701C131.986 3.89135 132.283 3.21361 132.918 2.62563L130.619 0.142422C129.288 1.37491 128.602 2.95456 128.602 4.7701H131.986ZM132.918 2.62563C133.536 2.05319 134.376 1.71078 135.592 1.71078V-1.67344C133.676 -1.67344 131.967 -1.10561 130.619 0.142423L132.918 2.62563ZM135.592 1.71078C136.826 1.71078 137.674 2.04626 138.29 2.59411L140.539 0.0647147C139.189 -1.13509 137.488 -1.67344 135.592 -1.67344V1.71078ZM138.317 2.61752C138.905 3.11788 139.197 3.73038 139.197 4.60626H142.581C142.581 2.78785 141.891 1.21578 140.512 0.0413053L138.317 2.61752ZM139.197 4.60626C139.197 5.58726 138.878 6.32384 138.241 6.93732L140.588 9.37504C141.917 8.09523 142.581 6.4652 142.581 4.60626H139.197ZM138.242 6.93645C137.677 7.47972 136.858 7.82942 135.592 7.82942V11.2136C137.529 11.2136 139.259 10.6531 140.587 9.37591L138.242 6.93645ZM154.039 41.5254L153.247 43.0209L153.256 43.0255L153.265 43.0299L154.039 41.5254ZM148.195 36.1186L146.747 36.9926L146.752 37.001L146.757 37.0093L148.195 36.1186ZM148.195 20.499L146.757 19.6083L146.753 19.6147L148.195 20.499ZM154.039 15.1468L154.814 16.6513L154.822 16.6468L154.831 16.6423L154.039 15.1468ZM170.587 15.1468L169.748 16.616L169.757 16.621L169.766 16.626L170.587 15.1468ZM175.666 20.6628L176.467 22.1535L177.862 21.4041L177.207 19.9626L175.666 20.6628ZM169.058 24.2127L167.577 25.0312L168.386 26.4947L169.859 25.7034L169.058 24.2127ZM166.164 21.1543L165.314 22.6177L165.324 22.6235L165.334 22.6291L166.164 21.1543ZM158.518 21.1543L159.347 22.6291L159.347 22.6291L158.518 21.1543ZM155.732 23.9397L154.266 23.0954L154.256 23.1123L154.247 23.1294L155.732 23.9397ZM155.732 32.6779L154.247 33.4882L154.256 33.5053L154.266 33.5222L155.732 32.6779ZM158.518 35.4632L159.347 33.9884L159.347 33.9884L158.518 35.4632ZM166.164 35.5179L166.977 37.0015L166.985 36.9971L166.993 36.9927L166.164 35.5179ZM169.058 32.4049L169.868 30.9194L168.375 30.1047L167.568 31.6026L169.058 32.4049ZM175.666 36.0094L177.203 36.7185L177.866 35.2817L176.477 34.5239L175.666 36.0094ZM170.587 41.5254L171.409 43.0046L171.418 42.9996L171.427 42.9946L170.587 41.5254ZM162.504 41.7448C159.569 41.7448 157.019 41.1559 154.814 40.0209L153.265 43.0299C156.011 44.4436 159.105 45.129 162.504 45.129V41.7448ZM154.831 40.03C152.61 38.8542 150.89 37.2562 149.634 35.228L146.757 37.0093C148.341 39.5686 150.517 41.5752 153.247 43.0209L154.831 40.03ZM149.644 35.2447C148.434 33.2375 147.812 30.9414 147.812 28.3088H144.428C144.428 31.5017 145.19 34.4122 146.747 36.9926L149.644 35.2447ZM147.812 28.3088C147.812 25.6352 148.436 23.3449 149.638 21.3832L146.753 19.6147C145.188 22.1678 144.428 25.0841 144.428 28.3088H147.812ZM149.634 21.3896C150.887 19.3656 152.602 17.7898 154.814 16.6513L153.265 13.6423C150.525 15.0524 148.344 17.0447 146.757 19.6083L149.634 21.3896ZM154.831 16.6423C157.032 15.4767 159.576 14.8728 162.504 14.8728V11.4886C159.097 11.4886 155.998 12.1954 153.247 13.6513L154.831 16.6423ZM162.504 14.8728C165.356 14.8728 167.75 15.4746 169.748 16.616L171.427 13.6776C168.837 12.1975 165.843 11.4886 162.504 11.4886V14.8728ZM169.766 16.626C171.74 17.7232 173.183 19.2878 174.126 21.363L177.207 19.9626C175.966 17.2318 174.022 15.1191 171.409 13.6676L169.766 16.626ZM174.866 19.1722L168.257 22.7221L169.859 25.7034L176.467 22.1535L174.866 19.1722ZM170.539 23.3943C169.651 21.7865 168.479 20.5151 166.993 19.6795L165.334 22.6291C166.179 23.1043 166.936 23.8719 167.577 25.0312L170.539 23.3943ZM167.013 19.691C165.618 18.8808 164.085 18.4792 162.45 18.4792V21.8634C163.509 21.8634 164.452 22.1171 165.314 22.6177L167.013 19.691ZM162.45 18.4792C160.73 18.4792 159.129 18.8692 157.688 19.6795L159.347 22.6291C160.237 22.1288 161.257 21.8634 162.45 21.8634V18.4792ZM157.688 19.6795C156.248 20.4897 155.103 21.6405 154.266 23.0954L157.199 24.784C157.745 23.8358 158.457 23.1297 159.347 22.6291L157.688 19.6795ZM154.247 23.1294C153.426 24.6342 153.057 26.3841 153.057 28.3088H156.441C156.441 26.811 156.728 25.6482 157.218 24.7499L154.247 23.1294ZM153.057 28.3088C153.057 30.2335 153.426 31.9834 154.247 33.4882L157.218 31.8677C156.728 30.9694 156.441 29.8066 156.441 28.3088H153.057ZM154.266 33.5222C155.103 34.9771 156.248 36.1279 157.688 36.9381L159.347 33.9884C158.457 33.4879 157.745 32.7818 157.199 31.8336L154.266 33.5222ZM157.688 36.9381C159.129 37.7484 160.73 38.1384 162.45 38.1384V34.7542C161.257 34.7542 160.237 34.4888 159.347 33.9884L157.688 36.9381ZM162.45 38.1384C164.068 38.1384 165.587 37.7637 166.977 37.0015L165.35 34.0342C164.482 34.51 163.526 34.7542 162.45 34.7542V38.1384ZM166.993 36.9927C168.49 36.1504 169.663 34.8505 170.548 33.2071L167.568 31.6026C166.924 32.7991 166.167 33.5746 165.334 34.0431L166.993 36.9927ZM168.248 33.8904L174.856 37.4949L176.477 34.5239L169.868 30.9194L168.248 33.8904ZM174.13 35.3003C173.187 37.3426 171.74 38.9177 169.748 40.0563L171.427 42.9946C174.022 41.5117 175.961 39.4094 177.203 36.7185L174.13 35.3003ZM169.766 40.0462C167.765 41.1578 165.363 41.7448 162.504 41.7448V45.129C165.835 45.129 168.822 44.4417 171.409 43.0046L169.766 40.0462ZM186.479 41.4708L185.696 42.971L185.705 42.9756L186.479 41.4708ZM180.635 36.1186L179.186 36.9926L179.193 37.0029L180.635 36.1186ZM180.581 20.499L179.132 19.625L179.128 19.6318L180.581 20.499ZM186.206 15.1468L187.008 16.6366L187.017 16.6319L187.026 16.627L186.206 15.1468ZM201.99 15.0376L201.186 16.5267L201.2 16.5342L201.214 16.5415L201.99 15.0376ZM207.506 20.2805L206.046 21.1375L206.053 21.1477L207.506 20.2805ZM209.472 29.5649L211.157 29.7181L211.158 29.7054L209.472 29.5649ZM209.362 30.7118V32.4039H210.894L211.046 30.8802L209.362 30.7118ZM185.496 30.7118H183.804V32.4039H185.496V30.7118ZM185.496 25.7419V24.0498H183.804V25.7419H185.496ZM204.884 25.7419L205.578 27.285L204.884 24.0498V25.7419ZM201.607 27.2165H199.915V29.8335L202.302 28.7596L201.607 27.2165ZM200.679 23.2297L199.195 24.0433L199.195 24.0433L200.679 23.2297ZM198.112 20.6082L197.241 22.0592L197.259 22.07L197.278 22.0804L198.112 20.6082ZM190.411 20.6082L191.246 22.0804L191.253 22.076L191.261 22.0715L190.411 20.6082ZM187.844 23.2843L189.328 24.0979L189.334 24.0881L189.339 24.0782L187.844 23.2843ZM187.954 32.8964L186.477 33.7218L186.491 33.7479L186.507 33.7734L187.954 32.8964ZM190.958 35.6817L190.184 37.1865L190.209 37.1996L190.235 37.2118L190.958 35.6817ZM199.641 35.9002L199.021 34.3258L199.013 34.3291L199.004 34.3325L199.641 35.9002ZM202.918 33.7702L204.162 32.6231L202.99 31.352L201.744 32.5513L202.918 33.7702ZM207.451 38.6855L208.721 39.804L209.729 38.6596L208.695 37.5383L207.451 38.6855ZM202.372 42.2354L202.991 43.8103L203.003 43.8056L203.015 43.8006L202.372 42.2354ZM195.327 41.7448C192.201 41.7448 189.525 41.1344 187.253 39.966L185.705 42.9756C188.531 44.4286 191.753 45.129 195.327 45.129V41.7448ZM187.262 39.9706C185.001 38.7913 183.29 37.212 182.078 35.2344L179.193 37.0029C180.748 39.54 182.932 41.5288 185.696 42.971L187.262 39.9706ZM182.084 35.2447C180.874 33.2375 180.252 30.9414 180.252 28.3088H176.868C176.868 31.5017 177.63 34.4122 179.186 36.9926L182.084 35.2447ZM180.252 28.3088C180.252 25.6268 180.862 23.3304 182.034 21.3661L179.128 19.6318C177.606 22.1823 176.868 25.0924 176.868 28.3088H180.252ZM182.03 21.3729C183.256 19.3396 184.908 17.7678 187.008 16.6366L185.404 13.6569C182.771 15.0744 180.673 17.0708 179.132 19.625L182.03 21.3729ZM187.026 16.627C189.116 15.4693 191.505 14.8728 194.234 14.8728V11.4886C190.992 11.4886 188.029 12.2028 185.386 13.6665L187.026 16.627ZM194.234 14.8728C196.86 14.8728 199.164 15.4354 201.186 16.5267L202.793 13.5485C200.228 12.1639 197.362 11.4886 194.234 11.4886V14.8728ZM201.214 16.5415C203.255 17.5941 204.859 19.1154 206.047 21.1374L208.965 19.4236C207.458 16.8581 205.384 14.8841 202.765 13.5336L201.214 16.5415ZM206.053 21.1477C207.214 23.0938 207.834 25.493 207.834 28.418H211.218C211.218 25.0078 210.492 21.982 208.959 19.4134L206.053 21.1477ZM207.834 28.418C207.834 28.6862 207.819 29.0197 207.785 29.4244L211.158 29.7054C211.197 29.2363 211.218 28.8052 211.218 28.418H207.834ZM207.787 29.4117C207.751 29.8077 207.715 30.1849 207.679 30.5434L211.046 30.8802C211.083 30.5106 211.12 30.1232 211.157 29.7181L207.787 29.4117ZM209.362 29.0197H185.496V32.4039H209.362V29.0197ZM187.188 30.7118V25.7419H183.804V30.7118H187.188ZM185.496 27.434H204.884V24.0498H185.496V27.434ZM204.19 24.1989L200.913 25.6734L202.302 28.7596L205.578 27.285L204.19 24.1989ZM203.299 27.2165C203.299 25.4563 202.942 23.8371 202.162 22.4161L199.195 24.0433C199.654 24.8796 199.915 25.9183 199.915 27.2165H203.299ZM202.162 22.4161C201.396 21.0192 200.319 19.914 198.946 19.136L197.278 22.0804C198.089 22.5403 198.723 23.1828 199.195 24.0433L202.162 22.4161ZM198.983 19.1572C197.591 18.3225 196.007 17.933 194.289 17.933V21.3173C195.483 21.3173 196.448 21.5832 197.241 22.0592L198.983 19.1572ZM194.289 17.933C192.57 17.933 190.977 18.3228 189.562 19.1449L191.261 22.0715C192.103 21.5828 193.096 21.3173 194.289 21.3173V17.933ZM189.577 19.136C188.19 19.922 187.112 21.0562 186.35 22.4904L189.339 24.0782C189.815 23.1822 190.448 22.5324 191.246 22.0804L189.577 19.136ZM186.361 22.4707C185.578 23.8973 185.224 25.5368 185.224 27.3257H188.608C188.608 25.9835 188.873 24.9287 189.328 24.0979L186.361 22.4707ZM185.224 27.3257V28.6365H188.608V27.3257H185.224ZM185.224 28.6365C185.224 30.4894 185.626 32.2003 186.477 33.7218L189.431 32.0709C188.898 31.1166 188.608 29.9876 188.608 28.6365H185.224ZM186.507 33.7734C187.4 35.2479 188.637 36.3911 190.184 37.1865L191.731 34.1769C190.729 33.6616 189.964 32.9479 189.401 32.0194L186.507 33.7734ZM190.235 37.2118C191.813 37.9571 193.598 38.3023 195.545 38.3023V34.918C193.997 34.918 192.723 34.6442 191.68 34.1516L190.235 37.2118ZM195.545 38.3023C197.277 38.3023 198.868 38.0408 200.278 37.4678L199.004 34.3325C198.084 34.7062 196.944 34.918 195.545 34.918V38.3023ZM200.261 37.4745C201.68 36.9155 202.958 36.0804 204.092 34.9891L201.744 32.5513C200.912 33.3533 200.005 33.9382 199.021 34.3258L200.261 37.4745ZM201.674 34.9174L206.207 39.8326L208.695 37.5383L204.162 32.6231L201.674 34.9174ZM206.181 37.5669C205.02 38.8855 203.547 39.9233 201.729 40.6702L203.015 43.8006C205.274 42.8727 207.188 41.5439 208.721 39.804L206.181 37.5669ZM201.753 40.6605C199.948 41.3695 197.817 41.7448 195.327 41.7448V45.129C198.152 45.129 200.717 44.7034 202.991 43.8103L201.753 40.6605ZM3.506 110H1.81388V111.692H3.506V110ZM3.506 71.7701V70.078H1.81388V71.7701H3.506ZM12.3535 71.7701H14.0456V70.078H12.3535V71.7701ZM12.3535 110V111.692H14.0456V110H12.3535ZM5.19811 110V71.7701H1.81388V110H5.19811ZM3.506 73.4622H12.3535V70.078H3.506V73.4622ZM10.6614 71.7701V110H14.0456V71.7701H10.6614ZM12.3535 108.308H3.506V111.692H12.3535V108.308ZM65.1722 81.6006L64.3791 83.0954L64.3971 83.105L64.4154 83.1141L65.1722 81.6006ZM69.4321 85.8606L67.9359 86.651L67.9449 86.668L67.9543 86.6847L69.4321 85.8606ZM71.0159 110V111.692H72.708V110H71.0159ZM62.4961 110H60.804V111.692H62.4961V110ZM61.0215 89.2466L62.2975 88.1353L62.2975 88.1353L61.0215 89.2466ZM53.5394 88.4274L54.3611 89.9066L54.3817 89.8951L54.402 89.8831L53.5394 88.4274ZM51.2456 90.9397L52.7687 91.6767L52.7687 91.6767L51.2456 90.9397ZM50.4264 110V111.692H52.1185V110H50.4264ZM41.9066 110H40.2144V111.692H41.9066V110ZM40.432 89.2466L39.1355 90.334L39.1456 90.3461L39.156 90.358L40.432 89.2466ZM33.0045 88.4274L33.8262 89.9066L33.8468 89.8951L33.8671 89.8831L33.0045 88.4274ZM30.7107 90.9397L32.2338 91.6767L32.2338 91.6767L30.7107 90.9397ZM29.8915 110V111.692H31.5836V110H29.8915ZM21.3716 110H19.6795V111.692H21.3716V110ZM21.3716 80.6176V78.9255H19.6795V80.6176H21.3716ZM29.5092 80.6176H31.2013V78.9255H29.5092V80.6176ZM29.5092 88.6459L28.0912 89.5692L31.2013 94.3454V88.6459H29.5092ZM27.98 86.2975L26.472 85.5298L26.0283 86.4013L26.562 87.2208L27.98 86.2975ZM32.2945 81.7645L33.1088 83.2478L33.1186 83.2423L32.2945 81.7645ZM45.7842 82.256L44.8223 83.6482L44.8367 83.6581L44.8514 83.6678L45.7842 82.256ZM49.8256 88.482L49.3804 90.1145L52.1196 90.8616L51.4733 88.0969L49.8256 88.482ZM46.8218 87.6628L45.2665 86.9963L44.5005 88.7836L46.3766 89.2953L46.8218 87.6628ZM51.5186 82.2014L50.6305 80.7611L50.6196 80.7679L51.5186 82.2014ZM59.0008 81.8728C61.0972 81.8728 62.8745 82.297 64.3791 83.0954L65.9653 80.1059C63.9018 79.011 61.5647 78.4886 59.0008 78.4886V81.8728ZM64.4154 83.1141C65.8967 83.8548 67.0688 85.0097 67.9359 86.651L70.9282 85.0701C69.7564 82.852 68.0886 81.167 65.9289 80.0872L64.4154 83.1141ZM67.9543 86.6847C68.8265 88.2488 69.3238 90.3781 69.3238 93.1788H72.708C72.708 90.0085 72.1494 87.2589 70.9099 85.0364L67.9543 86.6847ZM69.3238 93.1788V110H72.708V93.1788H69.3238ZM71.0159 108.308H62.4961V111.692H71.0159V108.308ZM64.1882 110V94.4896H60.804V110H64.1882ZM64.1882 94.4896C64.1882 91.9396 63.6669 89.7075 62.2975 88.1353L59.7455 90.358C60.3423 91.0431 60.804 92.3064 60.804 94.4896H64.1882ZM62.2975 88.1353C60.9311 86.5664 59.0412 85.8615 56.8708 85.8615V89.2457C58.2686 89.2457 59.1458 89.6694 59.7455 90.358L62.2975 88.1353ZM56.8708 85.8615C55.3555 85.8615 53.9425 86.2216 52.6767 86.9717L54.402 89.8831C55.1023 89.4681 55.9103 89.2457 56.8708 89.2457V85.8615ZM52.7176 86.9482C51.3953 87.6829 50.4021 88.7979 49.7224 90.2026L52.7687 91.6767C53.1813 90.8241 53.7174 90.2642 54.3611 89.9066L52.7176 86.9482ZM49.7224 90.2026C49.0302 91.6332 48.7343 93.3457 48.7343 95.2542H52.1185C52.1185 93.6674 52.3687 92.5035 52.7687 91.6767L49.7224 90.2026ZM48.7343 95.2542V110H52.1185V95.2542H48.7343ZM50.4264 108.308H41.9066V111.692H50.4264V108.308ZM43.5987 110V94.4896H40.2144V110H43.5987ZM43.5987 94.4896C43.5987 91.9396 43.0773 89.7075 41.708 88.1353L39.156 90.358C39.7527 91.0431 40.2144 92.3064 40.2144 94.4896H43.5987ZM41.7285 88.1593C40.3925 86.5664 38.5043 85.8615 36.3359 85.8615V89.2457C37.7357 89.2457 38.5781 89.6694 39.1355 90.334L41.7285 88.1593ZM36.3359 85.8615C34.8206 85.8615 33.4076 86.2216 32.1418 86.9717L33.8671 89.8831C34.5674 89.4681 35.3754 89.2457 36.3359 89.2457V85.8615ZM32.1827 86.9482C30.8604 87.6829 29.8672 88.7979 29.1875 90.2026L32.2338 91.6767C32.6464 90.8241 33.1824 90.2642 33.8262 89.9066L32.1827 86.9482ZM29.1875 90.2026C28.4953 91.6332 28.1993 93.3457 28.1993 95.2542H31.5836C31.5836 93.6674 31.8337 92.5035 32.2338 91.6767L29.1875 90.2026ZM28.1993 95.2542V110H31.5836V95.2542H28.1993ZM29.8915 108.308H21.3716V111.692H29.8915V108.308ZM23.0638 110V80.6176H19.6795V110H23.0638ZM21.3716 82.3097H29.5092V78.9255H21.3716V82.3097ZM27.817 80.6176V88.6459H31.2013V80.6176H27.817ZM30.9271 87.7225L29.3979 85.3741L26.562 87.2208L28.0912 89.5692L30.9271 87.7225ZM29.4879 87.0651C30.3631 85.346 31.5683 84.0936 33.1088 83.2478L31.4801 80.2812C29.3069 81.4744 27.6357 83.2439 26.472 85.5298L29.4879 87.0651ZM33.1186 83.2423C34.7334 82.3418 36.5924 81.8728 38.7389 81.8728V78.4886C36.0794 78.4886 33.6421 79.0755 31.4703 80.2867L33.1186 83.2423ZM38.7389 81.8728C41.128 81.8728 43.1325 82.4807 44.8223 83.6482L46.746 80.8639C44.4308 79.2643 41.7385 78.4886 38.7389 78.4886V81.8728ZM44.8514 83.6678C46.4664 84.7349 47.6022 86.4046 48.1779 88.8672L51.4733 88.0969C50.7382 84.9524 49.1798 82.4714 46.717 80.8442L44.8514 83.6678ZM50.2708 86.8495L47.2671 86.0303L46.3766 89.2953L49.3804 90.1145L50.2708 86.8495ZM48.3771 88.3294C49.2222 86.3574 50.5562 84.8023 52.4176 83.6349L50.6196 80.7679C48.1848 82.2948 46.3875 84.3806 45.2665 86.9963L48.3771 88.3294ZM52.4068 83.6417C54.3 82.4742 56.4809 81.8728 59.0008 81.8728V78.4886C55.9136 78.4886 53.1065 79.2343 50.6305 80.7611L52.4068 83.6417ZM90.0668 108.798L90.9248 107.34L90.9248 107.34L90.0668 108.798ZM85.6977 103.829L84.1556 104.525L84.1624 104.54L84.1695 104.555L85.6977 103.829ZM85.6431 86.789L87.1904 87.4739L87.1904 87.4739L85.6431 86.789ZM89.903 81.8191L89.0451 80.3606L89.0451 80.3606L89.903 81.8191ZM103.993 82.0922L103.141 83.5538L103.155 83.5621L103.17 83.5702L103.993 82.0922ZM109.236 87.3351L107.763 88.167L107.768 88.1759L107.773 88.1848L109.236 87.3351ZM109.236 103.337L107.773 102.487L107.768 102.496L107.763 102.505L109.236 103.337ZM103.993 108.58L103.17 107.102L103.159 107.108L103.993 108.58ZM79.1986 120.595H77.5065V122.287H79.1986V120.595ZM79.1986 80.6176V78.9255H77.5065V80.6176H79.1986ZM87.3361 80.6176H89.0282V78.9255H87.3361V80.6176ZM87.3361 86.6251L89.028 86.6569L89.0282 86.641V86.6251H87.3361ZM87.1723 95.3634L85.4805 95.3317L85.4792 95.4007L85.4835 95.4696L87.1723 95.3634ZM87.7184 104.047H89.4105V103.994L89.4072 103.941L87.7184 104.047ZM87.7184 120.595V122.287H89.4105V120.595H87.7184ZM98.8597 102.463L98.01 101L97.9995 101.006L97.9891 101.012L98.8597 102.463ZM101.536 99.6779L100.059 98.8525L100.054 98.86L100.05 98.8677L101.536 99.6779ZM101.536 90.9397L100.05 91.7499L100.06 91.7671L100.069 91.784L101.536 90.9397ZM98.8597 88.1543L97.9891 89.6053L97.9995 89.6116L98.01 89.6177L98.8597 88.1543ZM91.2684 88.1543L92.118 89.6177L92.118 89.6177L91.2684 88.1543ZM88.5923 90.9397L90.0778 91.7499L90.0778 91.7499L88.5923 90.9397ZM88.5923 99.6779L87.0968 100.47L87.1017 100.479L87.1068 100.488L88.5923 99.6779ZM91.2684 102.463L92.118 101L92.118 101L91.2684 102.463ZM96.5659 108.745C94.346 108.745 92.4848 108.258 90.9248 107.34L89.2089 110.257C91.3626 111.524 93.8341 112.129 96.5659 112.129V108.745ZM90.9248 107.34C89.3993 106.443 88.1578 105.062 87.2259 103.102L84.1695 104.555C85.3494 107.037 87.0206 108.97 89.2089 110.257L90.9248 107.34ZM87.2399 103.132C86.3494 101.16 85.8606 98.5771 85.8606 95.3088H82.4764C82.4764 98.8855 83.0071 101.982 84.1556 104.525L87.2399 103.132ZM85.8606 95.3088C85.8606 91.9931 86.3343 89.408 87.1904 87.4739L84.0958 86.1041C82.9858 88.6119 82.4764 91.7067 82.4764 95.3088H85.8606ZM87.1904 87.4739C88.0493 85.5335 89.2473 84.168 90.7609 83.2776L89.0451 80.3606C86.845 81.6548 85.203 83.6025 84.0958 86.1041L87.1904 87.4739ZM90.7609 83.2776C92.3102 82.3663 94.2221 81.8728 96.5659 81.8728V78.4886C93.7396 78.4886 91.2096 79.0874 89.0451 80.3606L90.7609 83.2776ZM96.5659 81.8728C99.0625 81.8728 101.239 82.4444 103.141 83.5538L104.846 80.6306C102.379 79.1913 99.6036 78.4886 96.5659 78.4886V81.8728ZM103.17 83.5702C105.113 84.6535 106.638 86.1751 107.763 88.167L110.71 86.5033C109.286 83.9804 107.316 82.0067 104.817 80.6141L103.17 83.5702ZM107.773 88.1848C108.91 90.1428 109.51 92.4972 109.51 95.3088H112.895C112.895 92.0036 112.184 89.0422 110.7 86.4855L107.773 88.1848ZM109.51 95.3088C109.51 98.1608 108.908 100.532 107.773 102.487L110.7 104.187C112.186 101.627 112.895 98.6464 112.895 95.3088H109.51ZM107.763 102.505C106.638 104.497 105.113 106.019 103.17 107.102L104.817 110.058C107.316 108.666 109.286 106.692 110.71 104.169L107.763 102.505ZM103.159 107.108C101.254 108.187 99.0712 108.745 96.5659 108.745V112.129C99.5949 112.129 102.363 111.449 104.828 110.052L103.159 107.108ZM80.8907 120.595V80.6176H77.5065V120.595H80.8907ZM79.1986 82.3097H87.3361V78.9255H79.1986V82.3097ZM85.644 80.6176V86.6251H89.0282V80.6176H85.644ZM85.6443 86.5934L85.4805 95.3317L88.8641 95.3951L89.028 86.6569L85.6443 86.5934ZM85.4835 95.4696L86.0297 104.153L89.4072 103.941L88.8611 95.2572L85.4835 95.4696ZM86.0263 104.047V120.595H89.4105V104.047H86.0263ZM87.7184 118.903H79.1986V122.287H87.7184V118.903ZM95.0913 105.138C96.7819 105.138 98.3457 104.745 99.7303 103.914L97.9891 101.012C97.1892 101.492 96.2408 101.754 95.0913 101.754V105.138ZM99.7094 103.927C101.119 103.108 102.225 101.948 103.021 100.488L100.05 98.8677C99.5356 99.8112 98.8578 100.508 98.01 101L99.7094 103.927ZM103.013 100.503C103.869 98.971 104.266 97.2201 104.266 95.3088H100.881C100.881 96.7471 100.586 97.909 100.059 98.8525L103.013 100.503ZM104.266 95.3088C104.266 93.3701 103.873 91.6074 103.002 90.0954L100.069 91.784C100.582 92.6749 100.881 93.825 100.881 95.3088H104.266ZM103.021 90.1294C102.225 88.67 101.119 87.5095 99.7094 86.691L98.01 89.6177C98.8578 90.1099 99.5356 90.8064 100.05 91.7499L103.021 90.1294ZM99.7303 86.7034C98.3457 85.8726 96.7819 85.4792 95.0913 85.4792V88.8634C96.2408 88.8634 97.1892 89.1253 97.9891 89.6053L99.7303 86.7034ZM95.0913 85.4792C93.4 85.4792 91.8279 85.8728 90.4187 86.691L92.118 89.6177C92.9662 89.1252 93.9428 88.8634 95.0913 88.8634V85.4792ZM90.4187 86.691C89.009 87.5095 87.9028 88.67 87.1068 90.1294L90.0778 91.7499C90.5924 90.8064 91.2703 90.1099 92.118 89.6177L90.4187 86.691ZM87.1068 90.1294C86.286 91.6342 85.9171 93.3841 85.9171 95.3088H89.3013C89.3013 93.811 89.5878 92.6482 90.0778 91.7499L87.1068 90.1294ZM85.9171 95.3088C85.9171 97.2059 86.2893 98.9444 87.0968 100.47L90.0877 98.8862C89.5845 97.9357 89.3013 96.7614 89.3013 95.3088H85.9171ZM87.1068 100.488C87.9028 101.948 89.009 103.108 90.4187 103.927L92.118 101C91.2703 100.508 90.5924 99.8112 90.0778 98.8677L87.1068 100.488ZM90.4187 103.927C91.8279 104.745 93.4 105.138 95.0913 105.138V101.754C93.9428 101.754 92.9662 101.492 92.118 101L90.4187 103.927ZM117.452 110H115.76V111.692H117.452V110ZM117.452 80.6176V78.9255H115.76V80.6176H117.452ZM125.59 80.6176H127.282V78.9255H125.59V80.6176ZM125.59 88.9189L124.062 89.6478L127.282 88.9189H125.59ZM124.443 86.5159L122.883 85.8593L122.588 86.5593L122.916 87.2448L124.443 86.5159ZM128.648 81.8191L129.46 83.3035L129.471 83.2977L129.481 83.2917L128.648 81.8191ZM135.693 80.1807H137.385V78.4886H135.693V80.1807ZM135.693 88.0451L135.525 89.7288L137.385 89.9149V88.0451H135.693ZM134.71 87.9905L134.5 89.6695L134.605 89.6826H134.71V87.9905ZM128.102 89.9566L129.249 91.2L129.251 91.1988L128.102 89.9566ZM125.972 110V111.692H127.664V110H125.972ZM119.144 110V80.6176H115.76V110H119.144ZM117.452 82.3097H125.59V78.9255H117.452V82.3097ZM123.897 80.6176V88.9189H127.282V80.6176H123.897ZM127.117 88.1901L125.97 85.7871L122.916 87.2448L124.062 89.6478L127.117 88.1901ZM126.002 87.1726C126.731 85.4406 127.874 84.1712 129.46 83.3035L127.836 80.3347C125.562 81.5788 123.902 83.4406 122.883 85.8593L126.002 87.1726ZM129.481 83.2917C131.101 82.3748 133.147 81.8728 135.693 81.8728V78.4886C132.705 78.4886 130.054 79.0788 127.814 80.3465L129.481 83.2917ZM134.001 80.1807V88.0451H137.385V80.1807H134.001ZM135.861 86.3614C135.455 86.3207 135.07 86.2984 134.71 86.2984V89.6826C134.933 89.6826 135.203 89.6967 135.525 89.7288L135.861 86.3614ZM134.92 86.3115C134.552 86.2654 134.172 86.2438 133.782 86.2438V89.628C134.047 89.628 134.286 89.6428 134.5 89.6695L134.92 86.3115ZM133.782 86.2438C131.105 86.2438 128.775 87.0284 126.953 88.7144L129.251 91.1988C130.341 90.1905 131.798 89.628 133.782 89.628V86.2438ZM126.954 88.7132C125.055 90.4661 124.28 93.0681 124.28 96.128H127.664C127.664 93.5809 128.308 92.0686 129.249 91.2L126.954 88.7132ZM124.28 96.128V110H127.664V96.128H124.28ZM125.972 108.308H117.452V111.692H125.972V108.308ZM146.717 108.471L145.907 109.956L145.916 109.961L146.717 108.471ZM140.983 103.119L139.534 103.993L139.542 104.006L139.55 104.02L140.983 103.119ZM140.983 87.499L139.544 86.6083L139.54 86.6147L140.983 87.499ZM146.717 82.1468L147.51 83.6417L147.518 83.6374L146.717 82.1468ZM163.374 82.1468L162.573 83.6374L162.582 83.642L162.591 83.6466L163.374 82.1468ZM169.109 87.4444L167.666 88.3286L169.109 87.4444ZM169.109 103.119L170.552 104.003L170.558 103.993L169.109 103.119ZM163.374 108.471L162.573 106.98L162.573 106.98L163.374 108.471ZM158.896 102.463L159.746 103.927L159.746 103.927L158.896 102.463ZM161.572 99.6779L163.058 100.488L163.063 100.479L163.068 100.47L161.572 99.6779ZM161.572 90.9397L160.087 91.7499L160.087 91.7499L161.572 90.9397ZM158.896 88.1543L158.046 89.6177L158.046 89.6177L158.896 88.1543ZM151.25 88.1543L152.1 89.6177L152.1 89.6177L151.25 88.1543ZM148.519 90.9397L147.053 90.0954L147.043 90.1123L147.034 90.1294L148.519 90.9397ZM148.519 99.6779L147.024 100.47L147.038 100.496L147.053 100.522L148.519 99.6779ZM151.25 102.463L152.1 101L152.1 101L151.25 102.463ZM155.073 108.745C152.184 108.745 149.681 108.142 147.518 106.98L145.916 109.961C148.632 111.421 151.699 112.129 155.073 112.129V108.745ZM147.527 106.985C145.371 105.809 143.677 104.224 142.415 102.218L139.55 104.02C141.128 106.528 143.257 108.511 145.907 109.956L147.527 106.985ZM142.432 102.245C141.221 100.237 140.599 97.9414 140.599 95.3088H137.215C137.215 98.5017 137.977 101.412 139.534 103.993L142.432 102.245ZM140.599 95.3088C140.599 92.6352 141.223 90.3449 142.425 88.3832L139.54 86.6147C137.975 89.1678 137.215 92.0841 137.215 95.3088H140.599ZM142.421 88.3896C143.682 86.3532 145.37 84.7767 147.51 83.6417L145.924 80.6519C143.258 82.0656 141.123 84.0572 139.544 86.6083L142.421 88.3896ZM147.518 83.6374C149.681 82.4754 152.184 81.8728 155.073 81.8728V78.4886C151.699 78.4886 148.632 79.1967 145.916 80.6562L147.518 83.6374ZM155.073 81.8728C157.922 81.8728 160.408 82.4739 162.573 83.6374L164.175 80.6562C161.462 79.1982 158.414 78.4886 155.073 78.4886V81.8728ZM162.591 83.6466C164.77 84.785 166.449 86.3428 167.666 88.3286L170.552 86.5601C169.002 84.0311 166.857 82.0572 164.158 80.647L162.591 83.6466ZM167.666 88.3286C168.867 90.2871 169.492 92.5945 169.492 95.3088H172.876C172.876 92.052 172.118 89.1164 170.552 86.5601L167.666 88.3286ZM169.492 95.3088C169.492 97.9414 168.871 100.237 167.66 102.245L170.558 103.993C172.114 101.412 172.876 98.5017 172.876 95.3088H169.492ZM167.666 102.234C166.446 104.224 164.762 105.804 162.573 106.98L164.175 109.961C166.866 108.516 169.004 106.528 170.552 104.003L167.666 102.234ZM162.573 106.98C160.408 108.144 157.922 108.745 155.073 108.745V112.129C158.414 112.129 161.462 111.419 164.175 109.961L162.573 106.98ZM155.073 105.138C156.764 105.138 158.336 104.745 159.746 103.927L158.046 101C157.198 101.492 156.222 101.754 155.073 101.754V105.138ZM159.746 103.927C161.155 103.108 162.262 101.948 163.058 100.488L160.087 98.8677C159.572 99.8112 158.894 100.508 158.046 101L159.746 103.927ZM163.068 100.47C163.875 98.9444 164.247 97.2059 164.247 95.3088H160.863C160.863 96.7614 160.58 97.9357 160.077 98.8862L163.068 100.47ZM164.247 95.3088C164.247 93.3841 163.878 91.6342 163.058 90.1294L160.087 91.7499C160.577 92.6482 160.863 93.811 160.863 95.3088H164.247ZM163.058 90.1294C162.262 88.67 161.155 87.5095 159.746 86.691L158.046 89.6177C158.894 90.1099 159.572 90.8064 160.087 91.7499L163.058 90.1294ZM159.746 86.691C158.336 85.8728 156.764 85.4792 155.073 85.4792V88.8634C156.222 88.8634 157.198 89.1252 158.046 89.6177L159.746 86.691ZM155.073 85.4792C153.382 85.4792 151.81 85.8728 150.4 86.691L152.1 89.6177C152.948 89.1252 153.924 88.8634 155.073 88.8634V85.4792ZM150.4 86.691C148.999 87.5045 147.883 88.6536 147.053 90.0954L149.986 91.784C150.539 90.8227 151.243 90.1149 152.1 89.6177L150.4 86.691ZM147.034 90.1294C146.213 91.6342 145.844 93.3841 145.844 95.3088H149.228C149.228 93.811 149.515 92.6482 150.005 91.7499L147.034 90.1294ZM145.844 95.3088C145.844 97.2059 146.216 98.9444 147.024 100.47L150.015 98.8862C149.512 97.9357 149.228 96.7614 149.228 95.3088H145.844ZM147.053 100.522C147.883 101.964 148.999 103.113 150.4 103.927L152.1 101C151.243 100.503 150.539 99.7949 149.986 98.8336L147.053 100.522ZM150.4 103.927C151.81 104.745 153.382 105.138 155.073 105.138V101.754C153.924 101.754 152.948 101.492 152.1 101L150.4 103.927ZM184.599 110L183.039 110.655L183.474 111.692H184.599V110ZM172.256 80.6176V78.9255H169.71L170.696 81.2729L172.256 80.6176ZM181.049 80.6176L182.617 79.981L182.188 78.9255H181.049V80.6176ZM191.316 105.904V107.596H193.83L192.884 105.267L191.316 105.904ZM186.947 105.904L185.388 105.247L184.398 107.596H186.947V105.904ZM197.597 80.6176V78.9255H196.474L196.038 79.9608L197.597 80.6176ZM205.789 80.6176L207.348 81.2754L208.34 78.9255H205.789V80.6176ZM193.392 110V111.692H194.514L194.951 110.658L193.392 110ZM186.159 109.345L173.816 79.9623L170.696 81.2729L183.039 110.655L186.159 109.345ZM172.256 82.3097H181.049V78.9255H172.256V82.3097ZM179.481 81.2542L189.749 106.541L192.884 105.267L182.617 79.981L179.481 81.2542ZM191.316 104.212H186.947V107.596H191.316V104.212ZM188.507 106.561L199.156 81.2744L196.038 79.9608L185.388 105.247L188.507 106.561ZM197.597 82.3097H205.789V78.9255H197.597V82.3097ZM204.23 79.9598L191.833 109.342L194.951 110.658L207.348 81.2754L204.23 79.9598ZM193.392 108.308H184.599V111.692H193.392V108.308ZM214.746 108.471L213.963 109.971L213.972 109.976L214.746 108.471ZM208.903 103.119L207.454 103.993L207.46 104.003L208.903 103.119ZM208.848 87.499L207.399 86.625L207.395 86.6318L208.848 87.499ZM214.473 82.1468L215.275 83.6366L215.284 83.6319L215.293 83.627L214.473 82.1468ZM230.257 82.0376L229.453 83.5267L229.467 83.5342L229.481 83.5415L230.257 82.0376ZM235.773 87.2805L234.314 88.1375L234.32 88.1477L235.773 87.2805ZM237.739 96.5649L239.424 96.7181L239.425 96.7054L237.739 96.5649ZM237.63 97.7118V99.4039H239.161L239.313 97.8802L237.63 97.7118ZM213.763 97.7118H212.071V99.4039H213.763V97.7118ZM213.763 92.7419V91.0498H212.071V92.7419H213.763ZM233.151 92.7419L233.846 94.285L233.151 91.0498V92.7419ZM229.874 94.2165H228.182V96.8335L230.569 95.7596L229.874 94.2165ZM228.946 90.2297L227.462 91.0433L227.462 91.0433L228.946 90.2297ZM226.379 87.6082L225.508 89.0592L225.526 89.07L225.545 89.0804L226.379 87.6082ZM218.678 87.6082L219.513 89.0804L219.52 89.076L219.528 89.0715L218.678 87.6082ZM216.112 90.2843L217.595 91.0979L217.601 91.0881L217.606 91.0782L216.112 90.2843ZM216.221 99.8964L214.744 100.722L214.758 100.748L214.774 100.773L216.221 99.8964ZM219.225 102.682L218.451 104.186L218.476 104.2L218.502 104.212L219.225 102.682ZM227.908 102.9L227.288 101.326L227.28 101.329L227.271 101.332L227.908 102.9ZM231.185 100.77L232.429 99.6231L231.257 98.352L230.011 99.5513L231.185 100.77ZM235.718 105.685L236.988 106.804L237.996 105.66L236.962 104.538L235.718 105.685ZM230.639 109.235L231.258 110.81L231.27 110.806L231.282 110.801L230.639 109.235ZM223.594 108.745C220.468 108.745 217.792 108.134 215.52 106.966L213.972 109.976C216.798 111.429 220.02 112.129 223.594 112.129V108.745ZM215.529 106.971C213.269 105.791 211.557 104.212 210.345 102.234L207.46 104.003C209.015 106.54 211.199 108.529 213.964 109.971L215.529 106.971ZM210.351 102.245C209.141 100.237 208.519 97.9414 208.519 95.3088H205.135C205.135 98.5017 205.897 101.412 207.454 103.993L210.351 102.245ZM208.519 95.3088C208.519 92.6268 209.129 90.3304 210.301 88.3661L207.395 86.6318C205.873 89.1823 205.135 92.0924 205.135 95.3088H208.519ZM210.297 88.3729C211.523 86.3396 213.175 84.7678 215.275 83.6366L213.671 80.6569C211.038 82.0744 208.94 84.0708 207.399 86.625L210.297 88.3729ZM215.293 83.627C217.383 82.4693 219.772 81.8728 222.501 81.8728V78.4886C219.259 78.4886 216.296 79.2028 213.653 80.6665L215.293 83.627ZM222.501 81.8728C225.127 81.8728 227.431 82.4354 229.453 83.5267L231.06 80.5485C228.495 79.1639 225.629 78.4886 222.501 78.4886V81.8728ZM229.481 83.5415C231.523 84.5941 233.126 86.1154 234.314 88.1374L237.232 86.4236C235.725 83.8581 233.651 81.8841 231.032 80.5336L229.481 83.5415ZM234.32 88.1477C235.481 90.0938 236.101 92.493 236.101 95.418H239.485C239.485 92.0078 238.759 88.982 237.226 86.4134L234.32 88.1477ZM236.101 95.418C236.101 95.6862 236.086 96.0197 236.053 96.4244L239.425 96.7054C239.464 96.2363 239.485 95.8052 239.485 95.418H236.101ZM236.054 96.4117C236.018 96.8077 235.982 97.1849 235.946 97.5434L239.313 97.8802C239.35 97.5106 239.387 97.1232 239.424 96.7181L236.054 96.4117ZM237.63 96.0197H213.763V99.4039H237.63V96.0197ZM215.455 97.7118V92.7419H212.071V97.7118H215.455ZM213.763 94.434H233.151V91.0498H213.763V94.434ZM232.457 91.1989L229.18 92.6734L230.569 95.7596L233.846 94.285L232.457 91.1989ZM231.566 94.2165C231.566 92.4563 231.209 90.8371 230.43 89.4161L227.462 91.0433C227.921 91.8796 228.182 92.9183 228.182 94.2165H231.566ZM230.43 89.4161C229.664 88.0192 228.586 86.914 227.213 86.136L225.545 89.0804C226.356 89.5403 226.99 90.1828 227.462 91.0433L230.43 89.4161ZM227.25 86.1572C225.858 85.3225 224.274 84.933 222.556 84.933V88.3173C223.751 88.3173 224.715 88.5832 225.508 89.0592L227.25 86.1572ZM222.556 84.933C220.837 84.933 219.245 85.3228 217.829 86.1449L219.528 89.0715C220.37 88.5828 221.363 88.3173 222.556 88.3173V84.933ZM217.844 86.136C216.457 86.922 215.379 88.0562 214.617 89.4904L217.606 91.0782C218.082 90.1822 218.715 89.5324 219.513 89.0804L217.844 86.136ZM214.628 89.4707C213.846 90.8973 213.491 92.5368 213.491 94.3257H216.875C216.875 92.9835 217.14 91.9287 217.595 91.0979L214.628 89.4707ZM213.491 94.3257V95.6365H216.875V94.3257H213.491ZM213.491 95.6365C213.491 97.4894 213.893 99.2003 214.744 100.722L217.698 99.0709C217.165 98.1166 216.875 96.9876 216.875 95.6365H213.491ZM214.774 100.773C215.667 102.248 216.904 103.391 218.451 104.186L219.998 101.177C218.996 100.662 218.231 99.9479 217.668 99.0194L214.774 100.773ZM218.502 104.212C220.08 104.957 221.865 105.302 223.812 105.302V101.918C222.264 101.918 220.99 101.644 219.947 101.152L218.502 104.212ZM223.812 105.302C225.544 105.302 227.135 105.041 228.545 104.468L227.271 101.332C226.351 101.706 225.211 101.918 223.812 101.918V105.302ZM228.528 104.475C229.947 103.915 231.225 103.08 232.359 101.989L230.011 99.5513C229.179 100.353 228.272 100.938 227.288 101.326L228.528 104.475ZM229.941 101.917L234.474 106.833L236.962 104.538L232.429 99.6231L229.941 101.917ZM234.448 104.567C233.287 105.885 231.815 106.923 229.996 107.67L231.282 110.801C233.541 109.873 235.455 108.544 236.988 106.804L234.448 104.567ZM230.02 107.66C228.215 108.369 226.084 108.745 223.594 108.745V112.129C226.419 112.129 228.985 111.703 231.258 110.81L230.02 107.66ZM287.812 81.6006L287.019 83.0954L287.037 83.105L287.056 83.1141L287.812 81.6006ZM292.072 85.8606L290.576 86.651L290.585 86.668L290.594 86.6847L292.072 85.8606ZM293.656 110V111.692H295.348V110H293.656ZM285.136 110H283.444V111.692H285.136V110ZM283.662 89.2466L284.938 88.1353L284.938 88.1353L283.662 89.2466ZM276.179 88.4274L277.001 89.9066L277.022 89.8951L277.042 89.8831L276.179 88.4274ZM273.886 90.9397L275.409 91.6767L275.409 91.6767L273.886 90.9397ZM273.066 110V111.692H274.759V110H273.066ZM264.547 110H262.855V111.692H264.547V110ZM263.072 89.2466L261.776 90.334L261.786 90.3461L261.796 90.358L263.072 89.2466ZM255.645 88.4274L256.466 89.9066L256.487 89.8951L256.507 89.8831L255.645 88.4274ZM253.351 90.9397L254.874 91.6767L254.874 91.6767L253.351 90.9397ZM252.532 110V111.692H254.224V110H252.532ZM244.012 110H242.32V111.692H244.012V110ZM244.012 80.6176V78.9255H242.32V80.6176H244.012ZM252.149 80.6176H253.841V78.9255H252.149V80.6176ZM252.149 88.6459L250.731 89.5692L253.841 94.3454V88.6459H252.149ZM250.62 86.2975L249.112 85.5298L248.668 86.4013L249.202 87.2208L250.62 86.2975ZM254.935 81.7645L255.749 83.2478L255.759 83.2423L254.935 81.7645ZM268.424 82.256L267.462 83.6482L267.477 83.6581L267.491 83.6678L268.424 82.256ZM272.466 88.482L272.02 90.1145L274.76 90.8616L274.113 88.0969L272.466 88.482ZM269.462 87.6628L267.907 86.9963L267.141 88.7836L269.017 89.2953L269.462 87.6628ZM274.159 82.2014L273.271 80.7611L273.26 80.7679L274.159 82.2014ZM281.641 81.8728C283.737 81.8728 285.515 82.297 287.019 83.0954L288.605 80.1059C286.542 79.011 284.205 78.4886 281.641 78.4886V81.8728ZM287.056 83.1141C288.537 83.8548 289.709 85.0097 290.576 86.651L293.568 85.0701C292.396 82.852 290.729 81.167 288.569 80.0872L287.056 83.1141ZM290.594 86.6847C291.467 88.2488 291.964 90.3781 291.964 93.1788H295.348C295.348 90.0085 294.789 87.2589 293.55 85.0364L290.594 86.6847ZM291.964 93.1788V110H295.348V93.1788H291.964ZM293.656 108.308H285.136V111.692H293.656V108.308ZM286.828 110V94.4896H283.444V110H286.828ZM286.828 94.4896C286.828 91.9396 286.307 89.7075 284.938 88.1353L282.386 90.358C282.982 91.0431 283.444 92.3064 283.444 94.4896H286.828ZM284.938 88.1353C283.571 86.5664 281.681 85.8615 279.511 85.8615V89.2457C280.909 89.2457 281.786 89.6694 282.386 90.358L284.938 88.1353ZM279.511 85.8615C277.996 85.8615 276.583 86.2216 275.317 86.9717L277.042 89.8831C277.742 89.4681 278.55 89.2457 279.511 89.2457V85.8615ZM275.358 86.9482C274.035 87.6829 273.042 88.7979 272.362 90.2026L275.409 91.6767C275.821 90.8241 276.357 90.2642 277.001 89.9066L275.358 86.9482ZM272.362 90.2026C271.67 91.6332 271.374 93.3457 271.374 95.2542H274.759C274.759 93.6674 275.009 92.5035 275.409 91.6767L272.362 90.2026ZM271.374 95.2542V110H274.759V95.2542H271.374ZM273.066 108.308H264.547V111.692H273.066V108.308ZM266.239 110V94.4896H262.855V110H266.239ZM266.239 94.4896C266.239 91.9396 265.717 89.7075 264.348 88.1353L261.796 90.358C262.393 91.0431 262.855 92.3064 262.855 94.4896H266.239ZM264.369 88.1593C263.033 86.5664 261.144 85.8615 258.976 85.8615V89.2457C260.376 89.2457 261.218 89.6694 261.776 90.334L264.369 88.1593ZM258.976 85.8615C257.461 85.8615 256.048 86.2216 254.782 86.9717L256.507 89.8831C257.207 89.4681 258.015 89.2457 258.976 89.2457V85.8615ZM254.823 86.9482C253.5 87.6829 252.507 88.7979 251.828 90.2026L254.874 91.6767C255.286 90.8241 255.823 90.2642 256.466 89.9066L254.823 86.9482ZM251.828 90.2026C251.135 91.6332 250.839 93.3457 250.839 95.2542H254.224C254.224 93.6674 254.474 92.5035 254.874 91.6767L251.828 90.2026ZM250.839 95.2542V110H254.224V95.2542H250.839ZM252.532 108.308H244.012V111.692H252.532V108.308ZM245.704 110V80.6176H242.32V110H245.704ZM244.012 82.3097H252.149V78.9255H244.012V82.3097ZM250.457 80.6176V88.6459H253.841V80.6176H250.457ZM253.567 87.7225L252.038 85.3741L249.202 87.2208L250.731 89.5692L253.567 87.7225ZM252.128 87.0651C253.003 85.346 254.208 84.0936 255.749 83.2478L254.12 80.2812C251.947 81.4744 250.276 83.2439 249.112 85.5298L252.128 87.0651ZM255.759 83.2423C257.374 82.3418 259.233 81.8728 261.379 81.8728V78.4886C258.719 78.4886 256.282 79.0755 254.11 80.2867L255.759 83.2423ZM261.379 81.8728C263.768 81.8728 265.773 82.4807 267.462 83.6482L269.386 80.8639C267.071 79.2643 264.379 78.4886 261.379 78.4886V81.8728ZM267.491 83.6678C269.106 84.7349 270.242 86.4046 270.818 88.8672L274.113 88.0969C273.378 84.9524 271.82 82.4714 269.357 80.8442L267.491 83.6678ZM272.911 86.8495L269.907 86.0303L269.017 89.2953L272.02 90.1145L272.911 86.8495ZM271.017 88.3294C271.862 86.3574 273.196 84.8023 275.058 83.6349L273.26 80.7679C270.825 82.2948 269.028 84.3806 267.907 86.9963L271.017 88.3294ZM275.047 83.6417C276.94 82.4742 279.121 81.8728 281.641 81.8728V78.4886C278.554 78.4886 275.747 79.2343 273.271 80.7611L275.047 83.6417ZM307.787 108.471L307.004 109.971L307.013 109.976L307.787 108.471ZM301.943 103.119L300.494 103.993L300.5 104.003L301.943 103.119ZM301.888 87.499L300.439 86.625L300.435 86.6318L301.888 87.499ZM307.513 82.1468L308.316 83.6366L308.325 83.6319L308.333 83.627L307.513 82.1468ZM323.297 82.0376L322.493 83.5267L322.507 83.5342L322.521 83.5415L323.297 82.0376ZM328.813 87.2805L327.354 88.1375L327.36 88.1477L328.813 87.2805ZM330.779 96.5649L332.464 96.7181L332.465 96.7054L330.779 96.5649ZM330.67 97.7118V99.4039H332.201L332.354 97.8802L330.67 97.7118ZM306.803 97.7118H305.111V99.4039H306.803V97.7118ZM306.803 92.7419V91.0498H305.111V92.7419H306.803ZM326.191 92.7419L326.886 94.285L326.191 91.0498V92.7419ZM322.915 94.2165H321.223V96.8335L323.609 95.7596L322.915 94.2165ZM321.986 90.2297L320.503 91.0433L320.503 91.0433L321.986 90.2297ZM319.419 87.6082L318.549 89.0592L318.567 89.07L318.585 89.0804L319.419 87.6082ZM311.719 87.6082L312.553 89.0804L312.561 89.076L312.568 89.0715L311.719 87.6082ZM309.152 90.2843L310.636 91.0979L310.641 91.0881L310.646 91.0782L309.152 90.2843ZM309.261 99.8964L307.784 100.722L307.799 100.748L307.814 100.773L309.261 99.8964ZM312.265 102.682L311.491 104.186L311.516 104.2L311.542 104.212L312.265 102.682ZM320.949 102.9L320.328 101.326L320.32 101.329L320.312 101.332L320.949 102.9ZM324.225 100.77L325.469 99.6231L324.297 98.352L323.052 99.5513L324.225 100.77ZM328.758 105.685L330.028 106.804L331.036 105.66L330.002 104.538L328.758 105.685ZM323.679 109.235L324.298 110.81L324.31 110.806L324.322 110.801L323.679 109.235ZM316.634 108.745C313.508 108.745 310.832 108.134 308.56 106.966L307.013 109.976C309.838 111.429 313.061 112.129 316.634 112.129V108.745ZM308.569 106.971C306.309 105.791 304.598 104.212 303.385 102.234L300.5 104.003C302.055 106.54 304.24 108.529 307.004 109.971L308.569 106.971ZM303.392 102.245C302.181 100.237 301.56 97.9414 301.56 95.3088H298.175C298.175 98.5017 298.937 101.412 300.494 103.993L303.392 102.245ZM301.56 95.3088C301.56 92.6268 302.169 90.3304 303.341 88.3661L300.435 86.6318C298.913 89.1823 298.175 92.0924 298.175 95.3088H301.56ZM303.337 88.3729C304.564 86.3396 306.215 84.7678 308.316 83.6366L306.711 80.6569C304.079 82.0744 301.98 84.0708 300.439 86.625L303.337 88.3729ZM308.333 83.627C310.424 82.4693 312.813 81.8728 315.542 81.8728V78.4886C312.3 78.4886 309.336 79.2028 306.694 80.6665L308.333 83.627ZM315.542 81.8728C318.167 81.8728 320.471 82.4354 322.493 83.5267L324.101 80.5485C321.535 79.1639 318.669 78.4886 315.542 78.4886V81.8728ZM322.521 83.5415C324.563 84.5941 326.166 86.1154 327.354 88.1374L330.272 86.4236C328.765 83.8581 326.691 81.8841 324.072 80.5336L322.521 83.5415ZM327.36 88.1477C328.521 90.0938 329.142 92.493 329.142 95.418H332.526C332.526 92.0078 331.799 88.982 330.266 86.4134L327.36 88.1477ZM329.142 95.418C329.142 95.6862 329.127 96.0197 329.093 96.4244L332.465 96.7054C332.504 96.2363 332.526 95.8052 332.526 95.418H329.142ZM329.094 96.4117C329.058 96.8077 329.022 97.1849 328.986 97.5434L332.354 97.8802C332.391 97.5106 332.427 97.1232 332.464 96.7181L329.094 96.4117ZM330.67 96.0197H306.803V99.4039H330.67V96.0197ZM308.496 97.7118V92.7419H305.111V97.7118H308.496ZM306.803 94.434H326.191V91.0498H306.803V94.434ZM325.497 91.1989L322.22 92.6734L323.609 95.7596L326.886 94.285L325.497 91.1989ZM324.607 94.2165C324.607 92.4563 324.249 90.8371 323.47 89.4161L320.503 91.0433C320.961 91.8796 321.223 92.9183 321.223 94.2165H324.607ZM323.47 89.4161C322.704 88.0192 321.626 86.914 320.254 86.136L318.585 89.0804C319.397 89.5403 320.031 90.1828 320.503 91.0433L323.47 89.4161ZM320.29 86.1572C318.899 85.3225 317.315 84.933 315.596 84.933V88.3173C316.791 88.3173 317.755 88.5832 318.549 89.0592L320.29 86.1572ZM315.596 84.933C313.877 84.933 312.285 85.3228 310.869 86.1449L312.568 89.0715C313.41 88.5828 314.403 88.3173 315.596 88.3173V84.933ZM310.884 86.136C309.498 86.922 308.419 88.0562 307.658 89.4904L310.646 91.0782C311.122 90.1822 311.755 89.5324 312.553 89.0804L310.884 86.136ZM307.668 89.4707C306.886 90.8973 306.531 92.5368 306.531 94.3257H309.916C309.916 92.9835 310.18 91.9287 310.636 91.0979L307.668 89.4707ZM306.531 94.3257V95.6365H309.916V94.3257H306.531ZM306.531 95.6365C306.531 97.4894 306.934 99.2003 307.784 100.722L310.738 99.0709C310.205 98.1166 309.916 96.9876 309.916 95.6365H306.531ZM307.814 100.773C308.708 102.248 309.944 103.391 311.491 104.186L313.039 101.177C312.037 100.662 311.271 99.9479 310.708 99.0194L307.814 100.773ZM311.542 104.212C313.121 104.957 314.906 105.302 316.852 105.302V101.918C315.304 101.918 314.031 101.644 312.987 101.152L311.542 104.212ZM316.852 105.302C318.585 105.302 320.175 105.041 321.585 104.468L320.312 101.332C319.392 101.706 318.251 101.918 316.852 101.918V105.302ZM321.569 104.475C322.988 103.915 324.266 103.08 325.399 101.989L323.052 99.5513C322.219 100.353 321.312 100.938 320.328 101.326L321.569 104.475ZM322.981 101.917L327.514 106.833L330.002 104.538L325.469 99.6231L322.981 101.917ZM327.489 104.567C326.327 105.885 324.855 106.923 323.036 107.67L324.322 110.801C326.582 109.873 328.495 108.544 330.028 106.804L327.489 104.567ZM323.061 107.66C321.256 108.369 319.124 108.745 316.634 108.745V112.129C319.46 112.129 322.025 111.703 324.298 110.81L323.061 107.66ZM361.137 81.6006L360.356 83.1019L360.374 83.1112L360.392 83.12L361.137 81.6006ZM365.506 85.8606L364.022 86.6728L364.028 86.6847L365.506 85.8606ZM367.09 110V111.692H368.782V110H367.09ZM358.57 110H356.878V111.692H358.57V110ZM356.986 89.2466L355.73 90.3808L355.74 90.3918L355.75 90.4026L356.986 89.2466ZM348.958 88.4274L349.735 89.9304L349.745 89.9255L349.754 89.9205L348.958 88.4274ZM346.446 90.9943L344.951 90.2004L344.942 90.2189L344.932 90.2375L346.446 90.9943ZM345.572 110V111.692H347.264V110H345.572ZM337.052 110H335.36V111.692H337.052V110ZM337.052 80.6176V78.9255H335.36V80.6176H337.052ZM345.19 80.6176H346.882V78.9255H345.19V80.6176ZM345.19 88.7551L343.753 89.649L346.882 94.6775V88.7551H345.19ZM343.66 86.2975L342.17 85.4969L341.706 86.3598L342.224 87.1914L343.66 86.2975ZM348.193 81.7645L348.994 83.2552L348.994 83.2552L348.193 81.7645ZM354.911 81.8728C357.006 81.8728 358.808 82.2968 360.356 83.1019L361.918 80.0994C359.825 79.0112 357.476 78.4886 354.911 78.4886V81.8728ZM360.392 83.12C361.915 83.8665 363.122 85.0288 364.022 86.6728L366.99 85.0483C365.778 82.8329 364.073 81.1553 361.882 80.0813L360.392 83.12ZM364.028 86.6847C364.9 88.2488 365.398 90.3781 365.398 93.1788H368.782C368.782 90.0085 368.223 87.2589 366.984 85.0364L364.028 86.6847ZM365.398 93.1788V110H368.782V93.1788H365.398ZM367.09 108.308H358.57V111.692H367.09V108.308ZM360.262 110V94.4896H356.878V110H360.262ZM360.262 94.4896C360.262 91.915 359.694 89.6638 358.222 88.0906L355.75 90.4026C356.391 91.0869 356.878 92.331 356.878 94.4896H360.262ZM358.242 88.1124C356.826 86.5447 354.863 85.8615 352.617 85.8615V89.2457C354.158 89.2457 355.108 89.6912 355.73 90.3808L358.242 88.1124ZM352.617 85.8615C351.017 85.8615 349.52 86.2098 348.162 86.9344L349.754 89.9205C350.58 89.4799 351.523 89.2457 352.617 89.2457V85.8615ZM348.181 86.9245C346.786 87.6458 345.713 88.7664 344.951 90.2004L347.94 91.7881C348.416 90.892 349.018 90.3013 349.735 89.9304L348.181 86.9245ZM344.932 90.2375C344.195 91.712 343.88 93.4877 343.88 95.4726H347.264C347.264 93.8167 347.531 92.6068 347.959 91.751L344.932 90.2375ZM343.88 95.4726V110H347.264V95.4726H343.88ZM345.572 108.308H337.052V111.692H345.572V108.308ZM338.744 110V80.6176H335.36V110H338.744ZM337.052 82.3097H345.19V78.9255H337.052V82.3097ZM343.497 80.6176V88.7551H346.882V80.6176H343.497ZM346.626 87.8612L345.097 85.4035L342.224 87.1914L343.753 89.649L346.626 87.8612ZM345.151 87.098C346.05 85.4248 347.321 84.1538 348.994 83.2552L347.393 80.2737C345.134 81.4869 343.383 83.2379 342.17 85.4969L345.151 87.098ZM348.994 83.2552C350.684 82.3474 352.642 81.8728 354.911 81.8728V78.4886C352.155 78.4886 349.635 79.0698 347.393 80.2737L348.994 83.2552ZM379.291 107.815L378.142 109.058L378.149 109.064L378.155 109.07L379.291 107.815ZM376.396 74.1185V72.4264H374.704V74.1185H376.396ZM384.916 74.1185H386.608V72.4264H384.916V74.1185ZM385.899 102.682L384.671 103.845L384.687 103.862L384.703 103.878L385.899 102.682ZM392.016 102.572L393.597 101.969L392.786 99.8454L390.984 101.231L392.016 102.572ZM394.31 108.58L395.288 109.961L396.359 109.202L395.891 107.976L394.31 108.58ZM391.142 110L391.541 111.644L391.558 111.64L391.575 111.636L391.142 110ZM371.863 87.8267H370.171V89.5188H371.863V87.8267ZM371.863 81.273V79.5809H370.171V81.273H371.863ZM392.234 81.273H393.927V79.5809H392.234V81.273ZM392.234 87.8267V89.5188H393.927V87.8267H392.234ZM387.374 108.745C384.194 108.745 381.955 107.945 380.427 106.561L378.155 109.07C380.486 111.181 383.636 112.129 387.374 112.129V108.745ZM380.44 106.573C378.96 105.205 378.088 103.083 378.088 99.8964H374.704C374.704 103.7 375.762 106.858 378.142 109.058L380.44 106.573ZM378.088 99.8964V74.1185H374.704V99.8964H378.088ZM376.396 75.8106H384.916V72.4264H376.396V75.8106ZM383.224 74.1185V99.7872H386.608V74.1185H383.224ZM383.224 99.7872C383.224 101.324 383.637 102.754 384.671 103.845L387.128 101.518C386.851 101.226 386.608 100.726 386.608 99.7872H383.224ZM384.703 103.878C385.742 104.918 387.102 105.357 388.575 105.357V101.973C387.791 101.973 387.367 101.757 387.096 101.485L384.703 103.878ZM388.575 105.357C390.245 105.357 391.768 104.898 393.048 103.914L390.984 101.231C390.371 101.703 389.599 101.973 388.575 101.973V105.357ZM390.435 103.176L392.729 109.184L395.891 107.976L393.597 101.969L390.435 103.176ZM393.332 107.199C392.652 107.681 391.789 108.078 390.709 108.364L391.575 111.636C392.971 111.266 394.22 110.717 395.288 109.961L393.332 107.199ZM390.744 108.356C389.68 108.613 388.558 108.745 387.374 108.745V112.129C388.811 112.129 390.201 111.969 391.541 111.644L390.744 108.356ZM373.556 87.8267V81.273H370.171V87.8267H373.556ZM371.863 82.9651H392.234V79.5809H371.863V82.9651ZM390.542 81.273V87.8267H393.927V81.273H390.542ZM392.234 86.1345H371.863V89.5188H392.234V86.1345Z" fill="#005669" mask="url(#path-1-outside-1_25_161)"/>
</svg>
